<?xml version="1.0" encoding="UTF-8"?>
<svg width="1792px" height="1200px" viewBox="0 0 1792 1200" version="1.1" xmlns="http://www.w3.org/2000/svg" xmlns:xlink="http://www.w3.org/1999/xlink">

    <defs>
        <path d="M280.471478,215.231867 L280.471478,493.661934 C280.471478,521.142769 277.610152,531.107984 272.237181,541.154567 C266.86421,551.20115 258.979593,559.085766 248.93301,564.458738 C238.886428,569.831709 228.921213,572.693034 201.440377,572.693034 L80.9761177,572.693034 C53.4952823,572.693034 43.5300673,569.831709 33.4834847,564.458738 C23.436902,559.085766 15.5522851,551.20115 10.1793139,541.154567 C4.80634272,531.107984 1.94501718,521.142769 1.94501718,493.661934 L1.94501718,229.697854 C1.91305348,229.699367 1.88063264,229.700129 1.84776632,229.700129 C1.54966661,229.700129 1.28821527,229.637411 1.07210225,229.520665 C0.855989229,229.403918 0.685214526,229.233144 0.568468078,229.017031 C0.451721629,228.800918 0.389003436,228.539466 0.389003436,228.241366 L0.389003436,188.528106 C0.389003436,188.230006 0.451721629,187.968554 0.568468078,187.752441 C0.685214526,187.536328 0.855989229,187.365554 1.07210225,187.248807 C1.28821527,187.132061 1.54966661,187.069343 1.84776632,187.069343 C1.88063264,187.069343 1.91305348,187.070105 1.94501718,187.071618 L1.94501718,175.192738 C1.91305348,175.194252 1.88063264,175.195014 1.84776632,175.195014 C1.54966661,175.195014 1.28821527,175.132296 1.07210225,175.015549 C0.855989229,174.898803 0.685214526,174.728028 0.568468078,174.511915 C0.451721629,174.295802 0.389003436,174.034351 0.389003436,173.736251 L0.389003436,134.02299 C0.389003436,133.72489 0.451721629,133.463439 0.568468078,133.247326 C0.685214526,133.031213 0.855989229,132.860438 1.07210225,132.743692 C1.28821527,132.626945 1.54966661,132.564227 1.84776632,132.564227 C1.88063264,132.564227 1.91305348,132.56499 1.94501718,132.566503 L1.94501718,112.840115 C1.79679322,112.881751 1.63411883,112.903453 1.45876289,112.903453 C1.16066317,112.903453 0.899211833,112.840735 0.683098813,112.723989 C0.466985792,112.607242 0.296211089,112.436468 0.179464641,112.220355 C0.062718193,112.004242 5.00386373e-16,111.74279 -3.30417519e-16,111.444691 L1.45190084e-17,92.7548312 C-2.19876779e-17,92.4567315 0.062718193,92.1952802 0.179464641,91.9791672 C0.296211089,91.7630542 0.466985792,91.5922795 0.683098813,91.475533 C0.899211833,91.3587866 1.16066317,91.2960684 1.45876289,91.2960684 C1.63411883,91.2960684 1.79679322,91.3177709 1.94501718,91.3594072 L1.94501718,79.0311005 C1.94501718,51.5502651 4.80634272,41.5850502 10.1793139,31.5384675 C15.5522851,21.4918848 23.436902,13.607268 33.4834847,8.23429675 C43.5300673,2.86132554 53.4952823,-2.70859595e-15 80.9761177,4.6617241e-15 L201.440377,-4.34385506e-16 C228.921213,2.52390488e-16 238.886428,2.86132554 248.93301,8.23429675 C258.979593,13.607268 266.86421,21.4918848 272.237181,31.5384675 C277.610152,41.5850502 280.471478,51.5502651 280.471478,79.0311005 L280.471478,147.227151 C280.619702,147.185514 280.782376,147.163812 280.957732,147.163812 C281.255832,147.163812 281.517283,147.22653 281.733396,147.343276 C281.949509,147.460023 282.120284,147.630797 282.23703,147.846911 C282.353777,148.063024 282.416495,148.324475 282.416495,148.622575 L282.416495,213.836443 C282.416495,214.134543 282.353777,214.395994 282.23703,214.612107 C282.120284,214.82822 281.949509,214.998995 281.733396,215.115741 C281.517283,215.232488 281.255832,215.295206 280.957732,215.295206 C280.782376,215.295206 280.619702,215.273503 280.471478,215.231867 Z" id="path-1"></path>
        <path d="M0,272.133389 C0,196.251646 0,120.369902 0,44.4873486 C0,38.7909974 -0.0564335447,33.0889805 0.648181619,27.4209573 C1.53280204,20.303351 3.96125131,13.8801849 9.21951292,8.75363066 C13.7431585,4.34175079 19.2738605,2.01238182 25.4118775,0.963437344 C28.5473744,0.426824547 31.7120614,0.184013327 34.8962084,0.130594859 C41.2515291,0.0237579218 47.6052281,0 53.9621704,0.0909356927 C56.4554864,0.126548005 57.9952611,1.85131704 58.0998588,4.01881187 C58.1858072,5.81723364 58.2328356,7.62213038 58.613117,9.41650529 C59.8399096,15.2059342 64.7981624,19.8209661 70.9110436,20.4296129 C72.7232586,20.6101025 74.5314195,20.6886115 76.3468779,20.6886115 C109.621903,20.6894209 142.896118,20.6886115 176.171143,20.685374 C178.699325,20.685374 181.222642,20.6529992 183.691633,19.9876965 C189.756675,18.3543863 193.772738,12.9979708 194.073558,6.72049138 C194.128695,5.55742563 194.178156,4.38707555 194.352485,3.23776911 C194.616817,1.49762203 195.851718,0.366121742 197.594201,0.167825912 C198.30206,0.0868888391 199.017216,0.038326595 199.729939,0.0358984828 C206.605005,0.0172829559 213.484124,-0.102503913 220.352703,0.233384942 C225.818539,0.500477284 231.196804,1.36407586 236.151002,3.85855646 C244.208265,7.91431321 248.938673,14.5373939 250.933326,23.230845 C251.938761,27.6135875 252.145523,32.0716015 252.246067,36.5385186 C252.308501,39.3211352 252.312555,42.1061799 252.312555,44.8904152 C252.318231,196.97927 252.321487,349.067315 252.321487,501.15617 C252.321487,506.464833 252.332826,511.776733 251.673618,517.057067 C250.783321,524.173864 248.353251,530.600268 243.097421,535.722775 C238.881082,539.831141 233.757419,542.162938 228.04509,543.29201 C223.126568,544.265683 218.133449,544.446173 213.137898,544.453457 C197.765287,544.471273 182.392676,544.471273 167.020065,544.471273 C125.313172,544.471273 83.606279,544.471273 41.898575,544.471273 C36.7732902,544.471273 31.6480055,544.421892 26.5640733,543.689411 C18.6503288,542.548199 11.7939124,539.419171 6.76511694,532.961202 C3.67340507,528.991239 1.92767843,524.440147 1.03900384,519.535361 C0.0181632275,513.898903 0.020595731,508.196077 0.0181632275,502.499725 C0,471.356758 0.00843321375,440.2146 0.00843321375,409.070824 C0.00762237927,363.425552 0.00843321375,317.778661 0.00843321375,272.133389 L0,272.133389 Z" id="path-3"></path>
        <path d="M280.471478,215.231867 L280.471478,493.661934 C280.471478,521.142769 277.610152,531.107984 272.237181,541.154567 C266.86421,551.20115 258.979593,559.085766 248.93301,564.458738 C238.886428,569.831709 228.921213,572.693034 201.440377,572.693034 L80.9761177,572.693034 C53.4952823,572.693034 43.5300673,569.831709 33.4834847,564.458738 C23.436902,559.085766 15.5522851,551.20115 10.1793139,541.154567 C4.80634272,531.107984 1.94501718,521.142769 1.94501718,493.661934 L1.94501718,229.697854 C1.91305348,229.699367 1.88063264,229.700129 1.84776632,229.700129 C1.54966661,229.700129 1.28821527,229.637411 1.07210225,229.520665 C0.855989229,229.403918 0.685214526,229.233144 0.568468078,229.017031 C0.451721629,228.800918 0.389003436,228.539466 0.389003436,228.241366 L0.389003436,188.528106 C0.389003436,188.230006 0.451721629,187.968554 0.568468078,187.752441 C0.685214526,187.536328 0.855989229,187.365554 1.07210225,187.248807 C1.28821527,187.132061 1.54966661,187.069343 1.84776632,187.069343 C1.88063264,187.069343 1.91305348,187.070105 1.94501718,187.071618 L1.94501718,175.192738 C1.91305348,175.194252 1.88063264,175.195014 1.84776632,175.195014 C1.54966661,175.195014 1.28821527,175.132296 1.07210225,175.015549 C0.855989229,174.898803 0.685214526,174.728028 0.568468078,174.511915 C0.451721629,174.295802 0.389003436,174.034351 0.389003436,173.736251 L0.389003436,134.02299 C0.389003436,133.72489 0.451721629,133.463439 0.568468078,133.247326 C0.685214526,133.031213 0.855989229,132.860438 1.07210225,132.743692 C1.28821527,132.626945 1.54966661,132.564227 1.84776632,132.564227 C1.88063264,132.564227 1.91305348,132.56499 1.94501718,132.566503 L1.94501718,112.840115 C1.79679322,112.881751 1.63411883,112.903453 1.45876289,112.903453 C1.16066317,112.903453 0.899211833,112.840735 0.683098813,112.723989 C0.466985792,112.607242 0.296211089,112.436468 0.179464641,112.220355 C0.062718193,112.004242 5.00386373e-16,111.74279 -3.30417519e-16,111.444691 L1.45190084e-17,92.7548312 C-2.19876779e-17,92.4567315 0.062718193,92.1952802 0.179464641,91.9791672 C0.296211089,91.7630542 0.466985792,91.5922795 0.683098813,91.475533 C0.899211833,91.3587866 1.16066317,91.2960684 1.45876289,91.2960684 C1.63411883,91.2960684 1.79679322,91.3177709 1.94501718,91.3594072 L1.94501718,79.0311005 C1.94501718,51.5502651 4.80634272,41.5850502 10.1793139,31.5384675 C15.5522851,21.4918848 23.436902,13.607268 33.4834847,8.23429675 C43.5300673,2.86132554 53.4952823,-2.70859595e-15 80.9761177,4.6617241e-15 L201.440377,-4.34385506e-16 C228.921213,2.52390488e-16 238.886428,2.86132554 248.93301,8.23429675 C258.979593,13.607268 266.86421,21.4918848 272.237181,31.5384675 C277.610152,41.5850502 280.471478,51.5502651 280.471478,79.0311005 L280.471478,147.227151 C280.619702,147.185514 280.782376,147.163812 280.957732,147.163812 C281.255832,147.163812 281.517283,147.22653 281.733396,147.343276 C281.949509,147.460023 282.120284,147.630797 282.23703,147.846911 C282.353777,148.063024 282.416495,148.324475 282.416495,148.622575 L282.416495,213.836443 C282.416495,214.134543 282.353777,214.395994 282.23703,214.612107 C282.120284,214.82822 281.949509,214.998995 281.733396,215.115741 C281.517283,215.232488 281.255832,215.295206 280.957732,215.295206 C280.782376,215.295206 280.619702,215.273503 280.471478,215.231867 Z" id="path-5"></path>
        <path d="M0,272.133389 C0,196.251646 0,120.369902 0,44.4873486 C0,38.7909974 -0.0564335447,33.0889805 0.648181619,27.4209573 C1.53280204,20.303351 3.96125131,13.8801849 9.21951292,8.75363066 C13.7431585,4.34175079 19.2738605,2.01238182 25.4118775,0.963437344 C28.5473744,0.426824547 31.7120614,0.184013327 34.8962084,0.130594859 C41.2515291,0.0237579218 47.6052281,0 53.9621704,0.0909356927 C56.4554864,0.126548005 57.9952611,1.85131704 58.0998588,4.01881187 C58.1858072,5.81723364 58.2328356,7.62213038 58.613117,9.41650529 C59.8399096,15.2059342 64.7981624,19.8209661 70.9110436,20.4296129 C72.7232586,20.6101025 74.5314195,20.6886115 76.3468779,20.6886115 C109.621903,20.6894209 142.896118,20.6886115 176.171143,20.685374 C178.699325,20.685374 181.222642,20.6529992 183.691633,19.9876965 C189.756675,18.3543863 193.772738,12.9979708 194.073558,6.72049138 C194.128695,5.55742563 194.178156,4.38707555 194.352485,3.23776911 C194.616817,1.49762203 195.851718,0.366121742 197.594201,0.167825912 C198.30206,0.0868888391 199.017216,0.038326595 199.729939,0.0358984828 C206.605005,0.0172829559 213.484124,-0.102503913 220.352703,0.233384942 C225.818539,0.500477284 231.196804,1.36407586 236.151002,3.85855646 C244.208265,7.91431321 248.938673,14.5373939 250.933326,23.230845 C251.938761,27.6135875 252.145523,32.0716015 252.246067,36.5385186 C252.308501,39.3211352 252.312555,42.1061799 252.312555,44.8904152 C252.318231,196.97927 252.321487,349.067315 252.321487,501.15617 C252.321487,506.464833 252.332826,511.776733 251.673618,517.057067 C250.783321,524.173864 248.353251,530.600268 243.097421,535.722775 C238.881082,539.831141 233.757419,542.162938 228.04509,543.29201 C223.126568,544.265683 218.133449,544.446173 213.137898,544.453457 C197.765287,544.471273 182.392676,544.471273 167.020065,544.471273 C125.313172,544.471273 83.606279,544.471273 41.898575,544.471273 C36.7732902,544.471273 31.6480055,544.421892 26.5640733,543.689411 C18.6503288,542.548199 11.7939124,539.419171 6.76511694,532.961202 C3.67340507,528.991239 1.92767843,524.440147 1.03900384,519.535361 C0.0181632275,513.898903 0.020595731,508.196077 0.0181632275,502.499725 C0,471.356758 0.00843321375,440.2146 0.00843321375,409.070824 C0.00762237927,363.425552 0.00843321375,317.778661 0.00843321375,272.133389 L0,272.133389 Z" id="path-7"></path>
        <path d="M280.471478,215.231867 L280.471478,493.661934 C280.471478,521.142769 277.610152,531.107984 272.237181,541.154567 C266.86421,551.20115 258.979593,559.085766 248.93301,564.458738 C238.886428,569.831709 228.921213,572.693034 201.440377,572.693034 L80.9761177,572.693034 C53.4952823,572.693034 43.5300673,569.831709 33.4834847,564.458738 C23.436902,559.085766 15.5522851,551.20115 10.1793139,541.154567 C4.80634272,531.107984 1.94501718,521.142769 1.94501718,493.661934 L1.94501718,229.697854 C1.91305348,229.699367 1.88063264,229.700129 1.84776632,229.700129 C1.54966661,229.700129 1.28821527,229.637411 1.07210225,229.520665 C0.855989229,229.403918 0.685214526,229.233144 0.568468078,229.017031 C0.451721629,228.800918 0.389003436,228.539466 0.389003436,228.241366 L0.389003436,188.528106 C0.389003436,188.230006 0.451721629,187.968554 0.568468078,187.752441 C0.685214526,187.536328 0.855989229,187.365554 1.07210225,187.248807 C1.28821527,187.132061 1.54966661,187.069343 1.84776632,187.069343 C1.88063264,187.069343 1.91305348,187.070105 1.94501718,187.071618 L1.94501718,175.192738 C1.91305348,175.194252 1.88063264,175.195014 1.84776632,175.195014 C1.54966661,175.195014 1.28821527,175.132296 1.07210225,175.015549 C0.855989229,174.898803 0.685214526,174.728028 0.568468078,174.511915 C0.451721629,174.295802 0.389003436,174.034351 0.389003436,173.736251 L0.389003436,134.02299 C0.389003436,133.72489 0.451721629,133.463439 0.568468078,133.247326 C0.685214526,133.031213 0.855989229,132.860438 1.07210225,132.743692 C1.28821527,132.626945 1.54966661,132.564227 1.84776632,132.564227 C1.88063264,132.564227 1.91305348,132.56499 1.94501718,132.566503 L1.94501718,112.840115 C1.79679322,112.881751 1.63411883,112.903453 1.45876289,112.903453 C1.16066317,112.903453 0.899211833,112.840735 0.683098813,112.723989 C0.466985792,112.607242 0.296211089,112.436468 0.179464641,112.220355 C0.062718193,112.004242 5.00386373e-16,111.74279 -3.30417519e-16,111.444691 L1.45190084e-17,92.7548312 C-2.19876779e-17,92.4567315 0.062718193,92.1952802 0.179464641,91.9791672 C0.296211089,91.7630542 0.466985792,91.5922795 0.683098813,91.475533 C0.899211833,91.3587866 1.16066317,91.2960684 1.45876289,91.2960684 C1.63411883,91.2960684 1.79679322,91.3177709 1.94501718,91.3594072 L1.94501718,79.0311005 C1.94501718,51.5502651 4.80634272,41.5850502 10.1793139,31.5384675 C15.5522851,21.4918848 23.436902,13.607268 33.4834847,8.23429675 C43.5300673,2.86132554 53.4952823,-2.70859595e-15 80.9761177,4.6617241e-15 L201.440377,-4.34385506e-16 C228.921213,2.52390488e-16 238.886428,2.86132554 248.93301,8.23429675 C258.979593,13.607268 266.86421,21.4918848 272.237181,31.5384675 C277.610152,41.5850502 280.471478,51.5502651 280.471478,79.0311005 L280.471478,147.227151 C280.619702,147.185514 280.782376,147.163812 280.957732,147.163812 C281.255832,147.163812 281.517283,147.22653 281.733396,147.343276 C281.949509,147.460023 282.120284,147.630797 282.23703,147.846911 C282.353777,148.063024 282.416495,148.324475 282.416495,148.622575 L282.416495,213.836443 C282.416495,214.134543 282.353777,214.395994 282.23703,214.612107 C282.120284,214.82822 281.949509,214.998995 281.733396,215.115741 C281.517283,215.232488 281.255832,215.295206 280.957732,215.295206 C280.782376,215.295206 280.619702,215.273503 280.471478,215.231867 Z" id="path-9"></path>
        <path d="M0,272.133389 C0,196.251646 0,120.369902 0,44.4873486 C0,38.7909974 -0.0564335447,33.0889805 0.648181619,27.4209573 C1.53280204,20.303351 3.96125131,13.8801849 9.21951292,8.75363066 C13.7431585,4.34175079 19.2738605,2.01238182 25.4118775,0.963437344 C28.5473744,0.426824547 31.7120614,0.184013327 34.8962084,0.130594859 C41.2515291,0.0237579218 47.6052281,0 53.9621704,0.0909356927 C56.4554864,0.126548005 57.9952611,1.85131704 58.0998588,4.01881187 C58.1858072,5.81723364 58.2328356,7.62213038 58.613117,9.41650529 C59.8399096,15.2059342 64.7981624,19.8209661 70.9110436,20.4296129 C72.7232586,20.6101025 74.5314195,20.6886115 76.3468779,20.6886115 C109.621903,20.6894209 142.896118,20.6886115 176.171143,20.685374 C178.699325,20.685374 181.222642,20.6529992 183.691633,19.9876965 C189.756675,18.3543863 193.772738,12.9979708 194.073558,6.72049138 C194.128695,5.55742563 194.178156,4.38707555 194.352485,3.23776911 C194.616817,1.49762203 195.851718,0.366121742 197.594201,0.167825912 C198.30206,0.0868888391 199.017216,0.038326595 199.729939,0.0358984828 C206.605005,0.0172829559 213.484124,-0.102503913 220.352703,0.233384942 C225.818539,0.500477284 231.196804,1.36407586 236.151002,3.85855646 C244.208265,7.91431321 248.938673,14.5373939 250.933326,23.230845 C251.938761,27.6135875 252.145523,32.0716015 252.246067,36.5385186 C252.308501,39.3211352 252.312555,42.1061799 252.312555,44.8904152 C252.318231,196.97927 252.321487,349.067315 252.321487,501.15617 C252.321487,506.464833 252.332826,511.776733 251.673618,517.057067 C250.783321,524.173864 248.353251,530.600268 243.097421,535.722775 C238.881082,539.831141 233.757419,542.162938 228.04509,543.29201 C223.126568,544.265683 218.133449,544.446173 213.137898,544.453457 C197.765287,544.471273 182.392676,544.471273 167.020065,544.471273 C125.313172,544.471273 83.606279,544.471273 41.898575,544.471273 C36.7732902,544.471273 31.6480055,544.421892 26.5640733,543.689411 C18.6503288,542.548199 11.7939124,539.419171 6.76511694,532.961202 C3.67340507,528.991239 1.92767843,524.440147 1.03900384,519.535361 C0.0181632275,513.898903 0.020595731,508.196077 0.0181632275,502.499725 C0,471.356758 0.00843321375,440.2146 0.00843321375,409.070824 C0.00762237927,363.425552 0.00843321375,317.778661 0.00843321375,272.133389 L0,272.133389 Z" id="path-11"></path>
        <path d="M327.738281,594.375 C327.609374,595.511724 327.017583,596.66601 325.962891,597.837891 C324.322257,599.701181 322.025405,600.632812 319.072266,600.632812 C316.634753,600.632812 314.484384,599.847664 312.621094,598.277344 C310.757803,596.707023 309.826172,594.152361 309.826172,590.613281 C309.826172,587.296858 310.666984,584.753915 312.348633,582.984375 C314.030282,581.214835 316.212877,580.330078 318.896484,580.330078 C320.490242,580.330078 321.925775,580.628903 323.203125,581.226562 C324.480475,581.824222 325.535152,582.767572 326.367188,584.056641 C327.117191,585.193365 327.603515,586.511711 327.826172,588.011719 C327.955079,588.890629 328.007813,590.156242 327.984375,591.808594 L314.871094,591.808594 C314.941407,593.730478 315.544916,595.078121 316.681641,595.851562 C317.37305,596.332034 318.205073,596.572266 319.177734,596.572266 C320.20899,596.572266 321.046872,596.2793 321.691406,595.693359 C322.042971,595.376952 322.353514,594.937503 322.623047,594.375 L327.738281,594.375 Z M322.78125,588.503906 C322.699218,587.179681 322.297855,586.174808 321.577148,585.489258 C320.856442,584.803708 319.962896,584.460938 318.896484,584.460938 C317.736322,584.460938 316.836917,584.824215 316.198242,585.550781 C315.559567,586.277347 315.158204,587.261713 314.994141,588.503906 L322.78125,588.503906 Z M342.492188,585.462891 C340.476552,585.462891 339.12305,586.119134 338.431641,587.431641 C338.04492,588.169926 337.851562,589.306633 337.851562,590.841797 L337.851562,600 L332.806641,600 L332.806641,580.839844 L337.587891,580.839844 L337.587891,584.179688 C338.361332,582.902337 339.035153,582.029299 339.609375,581.560547 C340.54688,580.775387 341.765618,580.382812 343.265625,580.382812 C343.359375,580.382812 343.438476,580.385742 343.50293,580.391602 C343.567383,580.397461 343.710936,580.40625 343.933594,580.417969 L343.933594,585.550781 C343.617186,585.515625 343.335939,585.492188 343.089844,585.480469 C342.843749,585.46875 342.644532,585.462891 342.492188,585.462891 Z M357.351562,573.931641 L357.351562,578.009766 C357.070311,577.974609 356.598636,577.948242 355.936523,577.930664 C355.274411,577.913086 354.817384,578.059569 354.56543,578.370117 C354.313475,578.680666 354.1875,579.023436 354.1875,579.398438 L354.1875,581.015625 L357.474609,581.015625 L357.474609,584.548828 L354.1875,584.548828 L354.1875,600 L349.195312,600 L349.195312,584.548828 L346.400391,584.548828 L346.400391,581.015625 L349.142578,581.015625 L349.142578,579.785156 C349.142578,577.734365 349.488278,576.322269 350.179688,575.548828 C350.906254,574.400385 352.658189,573.826172 355.435547,573.826172 C355.751955,573.826172 356.039061,573.834961 356.296875,573.852539 C356.554689,573.870117 356.906248,573.896484 357.351562,573.931641 Z M362.578125,582.914062 C363.90235,581.226554 366.175765,580.382812 369.398438,580.382812 C371.496104,580.382812 373.359367,580.798824 374.988281,581.630859 C376.617196,582.462895 377.431641,584.033192 377.431641,586.341797 L377.431641,595.130859 C377.431641,595.740237 377.443359,596.478511 377.466797,597.345703 C377.501953,598.001956 377.601562,598.447264 377.765625,598.681641 C377.929688,598.916017 378.17578,599.109374 378.503906,599.261719 L378.503906,600 L373.054688,600 C372.902343,599.613279 372.796875,599.250002 372.738281,598.910156 C372.679687,598.570311 372.632813,598.183596 372.597656,597.75 C371.906247,598.500004 371.10938,599.138669 370.207031,599.666016 C369.128901,600.287112 367.910163,600.597656 366.550781,600.597656 C364.816398,600.597656 363.383795,600.102544 362.25293,599.112305 C361.122065,598.122065 360.556641,596.718759 360.556641,594.902344 C360.556641,592.546863 361.464835,590.841802 363.28125,589.787109 C364.277349,589.212888 365.742178,588.802736 367.675781,588.556641 L369.380859,588.345703 C370.306645,588.228515 370.968748,588.082032 371.367188,587.90625 C372.082035,587.601561 372.439453,587.126956 372.439453,586.482422 C372.439453,585.697262 372.166995,585.155275 371.62207,584.856445 C371.077146,584.557616 370.277349,584.408203 369.222656,584.408203 C368.039057,584.408203 367.201174,584.701169 366.708984,585.287109 C366.35742,585.720705 366.123047,586.306637 366.005859,587.044922 L361.171875,587.044922 C361.277344,585.369132 361.74609,583.992193 362.578125,582.914062 Z M366.304688,596.378906 C366.77344,596.765627 367.347653,596.958984 368.027344,596.958984 C369.105474,596.958984 370.098628,596.642581 371.006836,596.009766 C371.915044,595.37695 372.386719,594.222665 372.421875,592.546875 L372.421875,590.683594 C372.105467,590.882813 371.786134,591.043945 371.463867,591.166992 C371.1416,591.29004 370.699222,591.404296 370.136719,591.509766 L369.011719,591.720703 C367.957026,591.908204 367.201174,592.136717 366.744141,592.40625 C365.970699,592.863284 365.583984,593.572261 365.583984,594.533203 C365.583984,595.388676 365.824216,596.003904 366.304688,596.378906 Z M396.580078,581.71875 C398.080086,582.679692 398.941405,584.33202 399.164062,586.675781 L394.154297,586.675781 C394.083984,586.031247 393.902345,585.521486 393.609375,585.146484 C393.058591,584.466793 392.1211,584.126953 390.796875,584.126953 C389.707026,584.126953 388.930666,584.296873 388.467773,584.636719 C388.00488,584.976564 387.773438,585.374998 387.773438,585.832031 C387.773438,586.406253 388.019529,586.822264 388.511719,587.080078 C389.003909,587.349611 390.744126,587.812497 393.732422,588.46875 C395.724619,588.937502 397.218745,589.64648 398.214844,590.595703 C399.199224,591.556645 399.691406,592.757805 399.691406,594.199219 C399.691406,596.097666 398.985359,597.647455 397.573242,598.848633 C396.161126,600.049811 393.97853,600.650391 391.025391,600.650391 C388.013657,600.650391 385.790046,600.014655 384.354492,598.743164 C382.918938,597.471673 382.201172,595.851572 382.201172,593.882812 L387.28125,593.882812 C387.386719,594.773442 387.615233,595.406248 387.966797,595.78125 C388.587894,596.449222 389.73632,596.783203 391.412109,596.783203 C392.396489,596.783203 393.178708,596.63672 393.758789,596.34375 C394.33887,596.05078 394.628906,595.611331 394.628906,595.025391 C394.628906,594.462888 394.394534,594.035158 393.925781,593.742188 C393.457029,593.449217 391.716812,592.945316 388.705078,592.230469 C386.537099,591.691404 385.007817,591.017582 384.117188,590.208984 C383.226558,589.412105 382.78125,588.263679 382.78125,586.763672 C382.78125,584.994132 383.475579,583.473639 384.864258,582.202148 C386.252937,580.930658 388.207019,580.294922 390.726562,580.294922 C393.117199,580.294922 395.068352,580.769527 396.580078,581.71875 Z M418.101562,581.71875 C419.60157,582.679692 420.46289,584.33202 420.685547,586.675781 L415.675781,586.675781 C415.605468,586.031247 415.42383,585.521486 415.130859,585.146484 C414.580075,584.466793 413.642585,584.126953 412.318359,584.126953 C411.22851,584.126953 410.452151,584.296873 409.989258,584.636719 C409.526365,584.976564 409.294922,585.374998 409.294922,585.832031 C409.294922,586.406253 409.541013,586.822264 410.033203,587.080078 C410.525393,587.349611 412.26561,587.812497 415.253906,588.46875 C417.246104,588.937502 418.740229,589.64648 419.736328,590.595703 C420.720708,591.556645 421.212891,592.757805 421.212891,594.199219 C421.212891,596.097666 420.506843,597.647455 419.094727,598.848633 C417.68261,600.049811 415.500015,600.650391 412.546875,600.650391 C409.535141,600.650391 407.311531,600.014655 405.875977,598.743164 C404.440423,597.471673 403.722656,595.851572 403.722656,593.882812 L408.802734,593.882812 C408.908204,594.773442 409.136717,595.406248 409.488281,595.78125 C410.109378,596.449222 411.257804,596.783203 412.933594,596.783203 C413.917974,596.783203 414.700192,596.63672 415.280273,596.34375 C415.860354,596.05078 416.150391,595.611331 416.150391,595.025391 C416.150391,594.462888 415.916018,594.035158 415.447266,593.742188 C414.978513,593.449217 413.238296,592.945316 410.226562,592.230469 C408.058583,591.691404 406.529301,591.017582 405.638672,590.208984 C404.748042,589.412105 404.302734,588.263679 404.302734,586.763672 C404.302734,584.994132 404.997063,583.473639 406.385742,582.202148 C407.774421,580.930658 409.728503,580.294922 412.248047,580.294922 C414.638684,580.294922 416.589836,580.769527 418.101562,581.71875 Z M442.822266,594.375 C442.693359,595.511724 442.101568,596.66601 441.046875,597.837891 C439.406242,599.701181 437.10939,600.632812 434.15625,600.632812 C431.718738,600.632812 429.568369,599.847664 427.705078,598.277344 C425.841788,596.707023 424.910156,594.152361 424.910156,590.613281 C424.910156,587.296858 425.750968,584.753915 427.432617,582.984375 C429.114266,581.214835 431.296862,580.330078 433.980469,580.330078 C435.574227,580.330078 437.009759,580.628903 438.287109,581.226562 C439.56446,581.824222 440.619136,582.767572 441.451172,584.056641 C442.201176,585.193365 442.687499,586.511711 442.910156,588.011719 C443.039063,588.890629 443.091797,590.156242 443.068359,591.808594 L429.955078,591.808594 C430.025391,593.730478 430.628901,595.078121 431.765625,595.851562 C432.457035,596.332034 433.289058,596.572266 434.261719,596.572266 C435.292974,596.572266 436.130856,596.2793 436.775391,595.693359 C437.126955,595.376952 437.437499,594.937503 437.707031,594.375 L442.822266,594.375 Z M437.865234,588.503906 C437.783203,587.179681 437.38184,586.174808 436.661133,585.489258 C435.940426,584.803708 435.04688,584.460938 433.980469,584.460938 C432.820307,584.460938 431.920902,584.824215 431.282227,585.550781 C430.643551,586.277347 430.242188,587.261713 430.078125,588.503906 L437.865234,588.503906 Z M456.960938,584.548828 C455.26171,584.548828 454.095706,585.269524 453.462891,586.710938 C453.134764,587.47266 452.970703,588.445307 452.970703,589.628906 L452.970703,600 L447.978516,600 L447.978516,580.875 L452.8125,580.875 L452.8125,583.669922 C453.457034,582.685542 454.066403,581.976565 454.640625,581.542969 C455.67188,580.769527 456.978516,580.382812 458.560547,580.382812 C460.541026,580.382812 462.161127,580.901362 463.420898,581.938477 C464.68067,582.975591 465.310547,584.6953 465.310547,587.097656 L465.310547,600 L460.177734,600 L460.177734,588.345703 C460.177734,587.337886 460.04297,586.564456 459.773438,586.025391 C459.281248,585.041011 458.343757,584.548828 456.960938,584.548828 Z" id="path-13"></path>
        <path d="M791.457031,580.839844 L797.082031,580.839844 L801.072266,594.972656 L805.150391,580.839844 L810.529297,580.839844 L803.621094,600 L798.330078,600 L791.457031,580.839844 Z M831.259766,594.375 C831.130859,595.511724 830.539068,596.66601 829.484375,597.837891 C827.843742,599.701181 825.54689,600.632812 822.59375,600.632812 C820.156238,600.632812 818.005869,599.847664 816.142578,598.277344 C814.279288,596.707023 813.347656,594.152361 813.347656,590.613281 C813.347656,587.296858 814.188468,584.753915 815.870117,582.984375 C817.551766,581.214835 819.734362,580.330078 822.417969,580.330078 C824.011727,580.330078 825.447259,580.628903 826.724609,581.226562 C828.00196,581.824222 829.056636,582.767572 829.888672,584.056641 C830.638676,585.193365 831.124999,586.511711 831.347656,588.011719 C831.476563,588.890629 831.529297,590.156242 831.505859,591.808594 L818.392578,591.808594 C818.462891,593.730478 819.066401,595.078121 820.203125,595.851562 C820.894535,596.332034 821.726558,596.572266 822.699219,596.572266 C823.730474,596.572266 824.568356,596.2793 825.212891,595.693359 C825.564455,595.376952 825.874999,594.937503 826.144531,594.375 L831.259766,594.375 Z M826.302734,588.503906 C826.220703,587.179681 825.81934,586.174808 825.098633,585.489258 C824.377926,584.803708 823.48438,584.460938 822.417969,584.460938 C821.257807,584.460938 820.358402,584.824215 819.719727,585.550781 C819.081051,586.277347 818.679688,587.261713 818.515625,588.503906 L826.302734,588.503906 Z M846.013672,585.462891 C843.998037,585.462891 842.644535,586.119134 841.953125,587.431641 C841.566404,588.169926 841.373047,589.306633 841.373047,590.841797 L841.373047,600 L836.328125,600 L836.328125,580.839844 L841.109375,580.839844 L841.109375,584.179688 C841.882816,582.902337 842.556638,582.029299 843.130859,581.560547 C844.068364,580.775387 845.287102,580.382812 846.787109,580.382812 C846.88086,580.382812 846.959961,580.385742 847.024414,580.391602 C847.088868,580.397461 847.232421,580.40625 847.455078,580.417969 L847.455078,585.550781 C847.13867,585.515625 846.857423,585.492188 846.611328,585.480469 C846.365233,585.46875 846.166016,585.462891 846.013672,585.462891 Z M852.611328,582.914062 C853.935553,581.226554 856.208968,580.382812 859.431641,580.382812 C861.529307,580.382812 863.39257,580.798824 865.021484,581.630859 C866.650399,582.462895 867.464844,584.033192 867.464844,586.341797 L867.464844,595.130859 C867.464844,595.740237 867.476562,596.478511 867.5,597.345703 C867.535156,598.001956 867.634765,598.447264 867.798828,598.681641 C867.962891,598.916017 868.208983,599.109374 868.537109,599.261719 L868.537109,600 L863.087891,600 C862.935546,599.613279 862.830078,599.250002 862.771484,598.910156 C862.71289,598.570311 862.666016,598.183596 862.630859,597.75 C861.93945,598.500004 861.142583,599.138669 860.240234,599.666016 C859.162104,600.287112 857.943366,600.597656 856.583984,600.597656 C854.849601,600.597656 853.416998,600.102544 852.286133,599.112305 C851.155268,598.122065 850.589844,596.718759 850.589844,594.902344 C850.589844,592.546863 851.498038,590.841802 853.314453,589.787109 C854.310552,589.212888 855.775381,588.802736 857.708984,588.556641 L859.414062,588.345703 C860.339848,588.228515 861.001951,588.082032 861.400391,587.90625 C862.115238,587.601561 862.472656,587.126956 862.472656,586.482422 C862.472656,585.697262 862.200198,585.155275 861.655273,584.856445 C861.110349,584.557616 860.310552,584.408203 859.255859,584.408203 C858.07226,584.408203 857.234377,584.701169 856.742188,585.287109 C856.390623,585.720705 856.156251,586.306637 856.039062,587.044922 L851.205078,587.044922 C851.310547,585.369132 851.779293,583.992193 852.611328,582.914062 Z M856.337891,596.378906 C856.806643,596.765627 857.380856,596.958984 858.060547,596.958984 C859.138677,596.958984 860.131831,596.642581 861.040039,596.009766 C861.948247,595.37695 862.419922,594.222665 862.455078,592.546875 L862.455078,590.683594 C862.13867,590.882813 861.819338,591.043945 861.49707,591.166992 C861.174803,591.29004 860.732425,591.404296 860.169922,591.509766 L859.044922,591.720703 C857.990229,591.908204 857.234377,592.136717 856.777344,592.40625 C856.003902,592.863284 855.617188,593.572261 855.617188,594.533203 C855.617188,595.388676 855.857419,596.003904 856.337891,596.378906 Z M883.044922,585.462891 C881.029287,585.462891 879.675785,586.119134 878.984375,587.431641 C878.597654,588.169926 878.404297,589.306633 878.404297,590.841797 L878.404297,600 L873.359375,600 L873.359375,580.839844 L878.140625,580.839844 L878.140625,584.179688 C878.914066,582.902337 879.587888,582.029299 880.162109,581.560547 C881.099614,580.775387 882.318352,580.382812 883.818359,580.382812 C883.91211,580.382812 883.991211,580.385742 884.055664,580.391602 C884.120118,580.397461 884.263671,580.40625 884.486328,580.417969 L884.486328,585.550781 C884.16992,585.515625 883.888673,585.492188 883.642578,585.480469 C883.396483,585.46875 883.197266,585.462891 883.044922,585.462891 Z M899.328125,600.509766 C897.746094,600.509766 896.474614,600.193363 895.513672,599.560547 C894.93945,599.185545 894.318363,598.529302 893.650391,597.591797 L893.650391,600 L888.746094,600 L888.746094,574.125 L893.738281,574.125 L893.738281,583.335938 C894.371097,582.445308 895.068356,581.765627 895.830078,581.296875 C896.732426,580.710935 897.880852,580.417969 899.275391,580.417969 C901.794934,580.417969 903.766594,581.326163 905.19043,583.142578 C906.614265,584.958993 907.326172,587.30272 907.326172,590.173828 C907.326172,593.150406 906.623054,595.617178 905.216797,597.574219 C903.81054,599.53126 901.847669,600.509766 899.328125,600.509766 Z M902.070312,590.701172 C902.070312,589.34179 901.894533,588.216801 901.542969,587.326172 C900.874997,585.638663 899.64454,584.794922 897.851562,584.794922 C896.035147,584.794922 894.787113,585.621085 894.107422,587.273438 C893.755858,588.152348 893.580078,589.289056 893.580078,590.683594 C893.580078,592.324227 893.943356,593.683588 894.669922,594.761719 C895.396488,595.839849 896.503899,596.378906 897.992188,596.378906 C899.281256,596.378906 900.2832,595.857427 900.998047,594.814453 C901.712894,593.771479 902.070312,592.400399 902.070312,590.701172 Z M928.8125,594.375 C928.683593,595.511724 928.091802,596.66601 927.037109,597.837891 C925.396476,599.701181 923.099624,600.632812 920.146484,600.632812 C917.708972,600.632812 915.558603,599.847664 913.695312,598.277344 C911.832022,596.707023 910.900391,594.152361 910.900391,590.613281 C910.900391,587.296858 911.741203,584.753915 913.422852,582.984375 C915.104501,581.214835 917.287096,580.330078 919.970703,580.330078 C921.564461,580.330078 922.999994,580.628903 924.277344,581.226562 C925.554694,581.824222 926.609371,582.767572 927.441406,584.056641 C928.19141,585.193365 928.677733,586.511711 928.900391,588.011719 C929.029298,588.890629 929.082031,590.156242 929.058594,591.808594 L915.945312,591.808594 C916.015625,593.730478 916.619135,595.078121 917.755859,595.851562 C918.447269,596.332034 919.279292,596.572266 920.251953,596.572266 C921.283208,596.572266 922.121091,596.2793 922.765625,595.693359 C923.117189,595.376952 923.427733,594.937503 923.697266,594.375 L928.8125,594.375 Z M923.855469,588.503906 C923.773437,587.179681 923.372074,586.174808 922.651367,585.489258 C921.93066,584.803708 921.037115,584.460938 919.970703,584.460938 C918.810541,584.460938 917.911136,584.824215 917.272461,585.550781 C916.633786,586.277347 916.232423,587.261713 916.068359,588.503906 L923.855469,588.503906 Z M939.083984,580.839844 L939.083984,600 L934.003906,600 L934.003906,580.839844 L939.083984,580.839844 Z M939.083984,573.931641 L939.083984,578.554688 L934.003906,578.554688 L934.003906,573.931641 L939.083984,573.931641 Z M954.207031,596.431641 L954.207031,600.175781 L951.833984,600.263672 C949.466785,600.345704 947.849614,599.935551 946.982422,599.033203 C946.419919,598.458982 946.138672,597.574225 946.138672,596.378906 L946.138672,584.583984 L943.466797,584.583984 L943.466797,581.015625 L946.138672,581.015625 L946.138672,575.671875 L951.095703,575.671875 L951.095703,581.015625 L954.207031,581.015625 L954.207031,584.583984 L951.095703,584.583984 L951.095703,594.708984 C951.095703,595.494145 951.195312,595.983397 951.394531,596.176758 C951.593751,596.370118 952.20312,596.466797 953.222656,596.466797 C953.375001,596.466797 953.536132,596.463867 953.706055,596.458008 C953.875977,596.452148 954.042968,596.443359 954.207031,596.431641 Z M975.324219,594.375 C975.195312,595.511724 974.603521,596.66601 973.548828,597.837891 C971.908195,599.701181 969.611343,600.632812 966.658203,600.632812 C964.220691,600.632812 962.070322,599.847664 960.207031,598.277344 C958.343741,596.707023 957.412109,594.152361 957.412109,590.613281 C957.412109,587.296858 958.252921,584.753915 959.93457,582.984375 C961.616219,581.214835 963.798815,580.330078 966.482422,580.330078 C968.07618,580.330078 969.511712,580.628903 970.789062,581.226562 C972.066413,581.824222 973.12109,582.767572 973.953125,584.056641 C974.703129,585.193365 975.189452,586.511711 975.412109,588.011719 C975.541016,588.890629 975.59375,590.156242 975.570312,591.808594 L962.457031,591.808594 C962.527344,593.730478 963.130854,595.078121 964.267578,595.851562 C964.958988,596.332034 965.791011,596.572266 966.763672,596.572266 C967.794927,596.572266 968.632809,596.2793 969.277344,595.693359 C969.628908,595.376952 969.939452,594.937503 970.208984,594.375 L975.324219,594.375 Z M970.367188,588.503906 C970.285156,587.179681 969.883793,586.174808 969.163086,585.489258 C968.442379,584.803708 967.548833,584.460938 966.482422,584.460938 C965.32226,584.460938 964.422855,584.824215 963.78418,585.550781 C963.145505,586.277347 962.744141,587.261713 962.580078,588.503906 L970.367188,588.503906 Z M989.462891,584.548828 C987.763663,584.548828 986.597659,585.269524 985.964844,586.710938 C985.636717,587.47266 985.472656,588.445307 985.472656,589.628906 L985.472656,600 L980.480469,600 L980.480469,580.875 L985.314453,580.875 L985.314453,583.669922 C985.958988,582.685542 986.568357,581.976565 987.142578,581.542969 C988.173833,580.769527 989.480469,580.382812 991.0625,580.382812 C993.042979,580.382812 994.66308,580.901362 995.922852,581.938477 C997.182623,582.975591 997.8125,584.6953 997.8125,587.097656 L997.8125,600 L992.679688,600 L992.679688,588.345703 C992.679688,587.337886 992.544923,586.564456 992.275391,586.025391 C991.783201,585.041011 990.84571,584.548828 989.462891,584.548828 Z" id="path-14"></path>
        <path d="M1317.38672,582.896484 C1318.9336,584.548836 1319.70703,586.974593 1319.70703,590.173828 C1319.70703,593.548845 1318.94825,596.121085 1317.43066,597.890625 C1315.91308,599.660165 1313.959,600.544922 1311.56836,600.544922 C1310.04491,600.544922 1308.7793,600.164066 1307.77148,599.402344 C1307.2207,598.980467 1306.68164,598.365238 1306.1543,597.556641 L1306.1543,607.541016 L1301.19727,607.541016 L1301.19727,580.839844 L1305.99609,580.839844 L1305.99609,583.669922 C1306.53516,582.837886 1307.10937,582.181643 1307.71875,581.701172 C1308.83204,580.845699 1310.15624,580.417969 1311.69141,580.417969 C1313.9297,580.417969 1315.82812,581.244132 1317.38672,582.896484 Z M1314.53906,590.419922 C1314.53906,588.943352 1314.20215,587.636724 1313.52832,586.5 C1312.85449,585.363276 1311.76173,584.794922 1310.25,584.794922 C1308.43358,584.794922 1307.18555,585.656241 1306.50586,587.378906 C1306.1543,588.292973 1305.97852,589.453118 1305.97852,590.859375 C1305.97852,593.085949 1306.57031,594.650386 1307.75391,595.552734 C1308.45703,596.080081 1309.28906,596.34375 1310.25,596.34375 C1311.64454,596.34375 1312.708,595.804693 1313.44043,594.726562 C1314.17286,593.648432 1314.53906,592.2129 1314.53906,590.419922 Z M1337.11523,597.292969 C1337.06836,597.351563 1336.95117,597.527342 1336.76367,597.820312 C1336.57617,598.113283 1336.35352,598.371093 1336.0957,598.59375 C1335.31054,599.296879 1334.55176,599.777342 1333.81934,600.035156 C1333.08691,600.29297 1332.22852,600.421875 1331.24414,600.421875 C1328.40819,600.421875 1326.49805,599.402354 1325.51367,597.363281 C1324.96289,596.238276 1324.6875,594.580089 1324.6875,592.388672 L1324.6875,580.839844 L1329.82031,580.839844 L1329.82031,592.388672 C1329.82031,593.478521 1329.94922,594.298825 1330.20703,594.849609 C1330.66406,595.82227 1331.56054,596.308594 1332.89648,596.308594 C1334.60743,596.308594 1335.77929,595.617194 1336.41211,594.234375 C1336.74024,593.484371 1336.9043,592.494147 1336.9043,591.263672 L1336.9043,580.839844 L1341.98438,580.839844 L1341.98438,600 L1337.11523,600 L1337.11523,597.292969 Z M1358.72461,600.509766 C1357.14258,600.509766 1355.8711,600.193363 1354.91016,599.560547 C1354.33593,599.185545 1353.71485,598.529302 1353.04688,597.591797 L1353.04688,600 L1348.14258,600 L1348.14258,574.125 L1353.13477,574.125 L1353.13477,583.335938 C1353.76758,582.445308 1354.46484,581.765627 1355.22656,581.296875 C1356.12891,580.710935 1357.27734,580.417969 1358.67188,580.417969 C1361.19142,580.417969 1363.16308,581.326163 1364.58691,583.142578 C1366.01075,584.958993 1366.72266,587.30272 1366.72266,590.173828 C1366.72266,593.150406 1366.01954,595.617178 1364.61328,597.574219 C1363.20702,599.53126 1361.24415,600.509766 1358.72461,600.509766 Z M1361.4668,590.701172 C1361.4668,589.34179 1361.29102,588.216801 1360.93945,587.326172 C1360.27148,585.638663 1359.04102,584.794922 1357.24805,584.794922 C1355.43163,584.794922 1354.1836,585.621085 1353.50391,587.273438 C1353.15234,588.152348 1352.97656,589.289056 1352.97656,590.683594 C1352.97656,592.324227 1353.33984,593.683588 1354.06641,594.761719 C1354.79297,595.839849 1355.90038,596.378906 1357.38867,596.378906 C1358.67774,596.378906 1359.67968,595.857427 1360.39453,594.814453 C1361.10938,593.771479 1361.4668,592.400399 1361.4668,590.701172 Z M1371.91406,574.089844 L1376.92383,574.089844 L1376.92383,600 L1371.91406,600 L1371.91406,574.089844 Z M1388.46094,580.839844 L1388.46094,600 L1383.38086,600 L1383.38086,580.839844 L1388.46094,580.839844 Z M1388.46094,573.931641 L1388.46094,578.554688 L1383.38086,578.554688 L1383.38086,573.931641 L1388.46094,573.931641 Z M1409.5957,600 L1393.05469,600 L1393.05469,596.097656 L1402.88086,584.917969 L1393.72266,584.917969 L1393.72266,580.839844 L1409.26172,580.839844 L1409.26172,585.005859 L1399.54102,595.886719 L1409.5957,595.886719 L1409.5957,600 Z M1419.46289,580.839844 L1419.46289,600 L1414.38281,600 L1414.38281,580.839844 L1419.46289,580.839844 Z M1419.46289,573.931641 L1419.46289,578.554688 L1414.38281,578.554688 L1414.38281,573.931641 L1419.46289,573.931641 Z M1442.21484,594.375 C1442.08594,595.511724 1441.49415,596.66601 1440.43945,597.837891 C1438.79882,599.701181 1436.50197,600.632812 1433.54883,600.632812 C1431.11132,600.632812 1428.96095,599.847664 1427.09766,598.277344 C1425.23437,596.707023 1424.30273,594.152361 1424.30273,590.613281 C1424.30273,587.296858 1425.14355,584.753915 1426.8252,582.984375 C1428.50684,581.214835 1430.68944,580.330078 1433.37305,580.330078 C1434.9668,580.330078 1436.40234,580.628903 1437.67969,581.226562 C1438.95704,581.824222 1440.01171,582.767572 1440.84375,584.056641 C1441.59375,585.193365 1442.08008,586.511711 1442.30273,588.011719 C1442.43164,588.890629 1442.48438,590.156242 1442.46094,591.808594 L1429.34766,591.808594 C1429.41797,593.730478 1430.02148,595.078121 1431.1582,595.851562 C1431.84961,596.332034 1432.68164,596.572266 1433.6543,596.572266 C1434.68555,596.572266 1435.52343,596.2793 1436.16797,595.693359 C1436.51953,595.376952 1436.83008,594.937503 1437.09961,594.375 L1442.21484,594.375 Z M1437.25781,588.503906 C1437.17578,587.179681 1436.77442,586.174808 1436.05371,585.489258 C1435.333,584.803708 1434.43946,584.460938 1433.37305,584.460938 C1432.21288,584.460938 1431.31348,584.824215 1430.6748,585.550781 C1430.03613,586.277347 1429.63477,587.261713 1429.4707,588.503906 L1437.25781,588.503906 Z M1456.96875,585.462891 C1454.95311,585.462891 1453.59961,586.119134 1452.9082,587.431641 C1452.52148,588.169926 1452.32812,589.306633 1452.32812,590.841797 L1452.32812,600 L1447.2832,600 L1447.2832,580.839844 L1452.06445,580.839844 L1452.06445,584.179688 C1452.83789,582.902337 1453.51172,582.029299 1454.08594,581.560547 C1455.02344,580.775387 1456.24218,580.382812 1457.74219,580.382812 C1457.83594,580.382812 1457.91504,580.385742 1457.97949,580.391602 C1458.04395,580.397461 1458.1875,580.40625 1458.41016,580.417969 L1458.41016,585.550781 C1458.09375,585.515625 1457.8125,585.492188 1457.56641,585.480469 C1457.32031,585.46875 1457.12109,585.462891 1456.96875,585.462891 Z M1479.24609,594.375 C1479.11719,595.511724 1478.5254,596.66601 1477.4707,597.837891 C1475.83007,599.701181 1473.53322,600.632812 1470.58008,600.632812 C1468.14257,600.632812 1465.9922,599.847664 1464.12891,598.277344 C1462.26562,596.707023 1461.33398,594.152361 1461.33398,590.613281 C1461.33398,587.296858 1462.1748,584.753915 1463.85645,582.984375 C1465.53809,581.214835 1467.72069,580.330078 1470.4043,580.330078 C1471.99805,580.330078 1473.43359,580.628903 1474.71094,581.226562 C1475.98829,581.824222 1477.04296,582.767572 1477.875,584.056641 C1478.625,585.193365 1479.11133,586.511711 1479.33398,588.011719 C1479.46289,588.890629 1479.51563,590.156242 1479.49219,591.808594 L1466.37891,591.808594 C1466.44922,593.730478 1467.05273,595.078121 1468.18945,595.851562 C1468.88086,596.332034 1469.71289,596.572266 1470.68555,596.572266 C1471.7168,596.572266 1472.55468,596.2793 1473.19922,595.693359 C1473.55078,595.376952 1473.86133,594.937503 1474.13086,594.375 L1479.24609,594.375 Z M1474.28906,588.503906 C1474.20703,587.179681 1473.80567,586.174808 1473.08496,585.489258 C1472.36425,584.803708 1471.47071,584.460938 1470.4043,584.460938 C1469.24413,584.460938 1468.34473,584.824215 1467.70605,585.550781 C1467.06738,586.277347 1466.66602,587.261713 1466.50195,588.503906 L1474.28906,588.503906 Z M1493.38477,584.548828 C1491.68554,584.548828 1490.51953,585.269524 1489.88672,586.710938 C1489.55859,587.47266 1489.39453,588.445307 1489.39453,589.628906 L1489.39453,600 L1484.40234,600 L1484.40234,580.875 L1489.23633,580.875 L1489.23633,583.669922 C1489.88086,582.685542 1490.49023,581.976565 1491.06445,581.542969 C1492.09571,580.769527 1493.40234,580.382812 1494.98438,580.382812 C1496.96485,580.382812 1498.58495,580.901362 1499.84473,581.938477 C1501.1045,582.975591 1501.73438,584.6953 1501.73438,587.097656 L1501.73438,600 L1496.60156,600 L1496.60156,588.345703 C1496.60156,587.337886 1496.4668,586.564456 1496.19727,586.025391 C1495.70508,585.041011 1494.76759,584.548828 1493.38477,584.548828 Z" id="path-15"></path>
    </defs>
    <g id="Scene-Small" stroke="none" stroke-width="1" fill="none" fill-rule="evenodd">
        <rect fill="#637F8A" x="0" y="0" width="1792" height="1200"></rect>
        <g id="iPhone-12-Pro-Outline" transform="translate(248.000000, 313.000000)">
            <g id="Device">
                <g id="Shape-Enhancement">
                    <mask id="mask-2" fill="white">
                        <use xlink:href="#path-1"></use>
                    </mask>
                    <path stroke="#FFFFFF" stroke-width="1.00515464" d="M279.9689,493.661934 L279.9689,214.568664 L280.607392,214.748017 C280.711536,214.777271 280.828728,214.792629 280.957732,214.792629 C281.171771,214.792629 281.352036,214.750534 281.494525,214.67356 C281.624515,214.603338 281.724627,214.503226 281.794849,214.373236 C281.871823,214.230747 281.913918,214.050482 281.913918,213.836443 L281.913918,148.622575 C281.913918,148.408536 281.871823,148.228271 281.794849,148.085782 C281.724627,147.955792 281.624515,147.85568 281.494525,147.785458 C281.352036,147.708484 281.171771,147.666389 280.957732,147.666389 C280.828728,147.666389 280.711536,147.681747 280.607392,147.711001 L279.9689,147.890354 L279.9689,79.0311005 C279.9689,54.0521089 277.855946,43.1103327 271.794002,31.7754824 C266.467871,21.8164831 258.654995,14.0036072 248.695995,8.67747606 C237.361145,2.61553179 226.419369,0.50257732 201.440377,0.50257732 L80.9761177,0.50257732 C55.9971261,0.50257732 45.0553498,2.61553179 33.7204996,8.67747606 C23.7615003,14.0036072 15.9486243,21.8164831 10.6224932,31.7754824 C4.56054897,43.1103327 2.4475945,54.0521089 2.4475945,79.0311005 L2.4475945,92.0226108 L1.80910296,91.8432577 C1.70495894,91.8140035 1.58776725,91.7986457 1.45876289,91.7986457 C1.2447242,91.7986457 1.06445929,91.8407404 0.921969824,91.9177146 C0.791980239,91.9879363 0.691867974,92.0880486 0.62164628,92.2180382 C0.544672024,92.3605277 0.50257732,92.5407926 0.50257732,92.7548312 L0.50257732,111.444691 C0.50257732,111.658729 0.544672024,111.838994 0.62164628,111.981484 C0.691867974,112.111473 0.791980239,112.211585 0.921969824,112.281807 C1.06445929,112.358781 1.2447242,112.400876 1.45876289,112.400876 C1.58776725,112.400876 1.70495894,112.385518 1.80910296,112.356264 L2.4475945,112.176911 L2.4475945,133.093434 L1.92125248,133.068518 C1.88510932,133.067096 1.88510932,133.067096 1.84776632,133.066805 C1.63372764,133.066805 1.45346273,133.108899 1.31097326,133.185873 C1.18098368,133.256095 1.08087141,133.356207 1.01064972,133.486197 C0.933675461,133.628686 0.891580756,133.808951 0.891580756,134.02299 L0.891580756,173.736251 C0.891580756,173.95029 0.933675461,174.130555 1.01064972,174.273044 C1.08087141,174.403034 1.18098368,174.503146 1.31097326,174.573368 C1.45346273,174.650342 1.63372764,174.692437 1.84776632,174.692437 C1.88510932,174.692146 1.88510932,174.692146 1.92125248,174.690723 L2.4475945,174.665807 L2.4475945,187.59855 L1.92125248,187.573633 C1.88510932,187.572211 1.88510932,187.572211 1.84776632,187.57192 C1.63372764,187.57192 1.45346273,187.614015 1.31097326,187.690989 C1.18098368,187.761211 1.08087141,187.861323 1.01064972,187.991312 C0.933675461,188.133802 0.891580756,188.314067 0.891580756,188.528106 L0.891580756,228.241366 C0.891580756,228.455405 0.933675461,228.63567 1.01064972,228.77816 C1.08087141,228.908149 1.18098368,229.008261 1.31097326,229.078483 C1.45346273,229.155457 1.63372764,229.197552 1.84776632,229.197552 C1.88510932,229.197261 1.88510932,229.197261 1.92125248,229.195839 L2.4475945,229.170922 L2.4475945,493.661934 C2.4475945,518.640925 4.56054897,529.582702 10.6224932,540.917552 C15.9486243,550.876551 23.7615003,558.689427 33.7204996,564.015558 C45.0553498,570.077503 55.9971261,572.190457 80.9761177,572.190457 L201.440377,572.190457 C226.419369,572.190457 237.361145,570.077503 248.695995,564.015558 C258.654995,558.689427 266.467871,550.876551 271.794002,540.917552 C277.855946,529.582702 279.9689,518.640925 279.9689,493.661934 Z"></path>
                    <path d="M220.370447,0.194661127 L224.649485,0.194661127 L224.649485,4.47720591 L220.370447,4.47720591 L220.370447,0.194661127 Z M276.19244,57.6196935 L280.471478,57.6196935 L280.471478,61.512916 L276.19244,61.512916 L276.19244,57.6196935 Z M276.19244,510.206813 L280.471478,510.206813 L280.471478,514.100035 L276.19244,514.100035 L276.19244,510.206813 Z M57.5725086,568.41049 L61.6570447,568.41049 L61.6570447,572.693034 L57.5725086,572.693034 L57.5725086,568.41049 Z M1.94501718,510.012152 L6.22405498,510.012152 L6.22405498,514.100035 L1.94501718,514.100035 L1.94501718,510.012152 Z M1.94501718,57.6196935 L6.4185567,57.6196935 L6.4185567,61.7075771 L1.94501718,61.7075771 L1.94501718,57.6196935 Z" id="Details" fill="#FFFFFF" mask="url(#mask-2)"></path>
                </g>
                <path d="M77.0084319,4.28254478 L205.408063,4.28254478 C230.021333,4.28254478 238.946699,6.84529722 247.944943,11.6576106 C256.943186,16.4699239 264.005061,23.5317981 268.817374,32.5300418 C273.629687,41.5282854 276.19244,50.4536518 276.19244,75.0669217 L276.19244,497.626113 C276.19244,522.239383 273.629687,531.164749 268.817374,540.162993 C264.005061,549.161236 256.943186,556.22311 247.944943,561.035424 C238.946699,565.847737 230.021333,568.41049 205.408063,568.41049 L77.0084319,568.41049 C52.395162,568.41049 43.4697956,565.847737 34.471552,561.035424 C25.4733083,556.22311 18.4114341,549.161236 13.5991208,540.162993 C8.78680742,531.164749 6.22405498,522.239383 6.22405498,497.626113 L6.22405498,75.0669217 C6.22405498,50.4536518 8.78680742,41.5282854 13.5991208,32.5300418 C18.4114341,23.5317981 25.4733083,16.4699239 34.471552,11.6576106 C43.4697956,6.84529722 52.395162,4.28254478 77.0084319,4.28254478 Z" id="Combined-Shape" stroke="#FFFFFF" stroke-width="1.00515464"></path>
            </g>
            <g id="Screen" transform="translate(15.000000, 14.000000)">
                <mask id="mask-4" fill="white">
                    <use xlink:href="#path-3"></use>
                </mask>
                <use id="Mask" stroke="#FFFFFF" xlink:href="#path-3"></use>
            </g>
            <g id="Speaker-+-Camera" transform="translate(127.000000, 14.000000)" stroke="#FFFFFF" stroke-width="1.00515464">
                <ellipse id="Oval" cx="43.1266349" cy="5.30721649" rx="4.79023696" ry="4.80463918"></ellipse>
                <ellipse id="Oval" cx="43.1266349" cy="5.30721649" rx="2.2418449" ry="2.24931271"></ellipse>
                <rect id="Rectangle" x="0.50257732" y="3.6475945" width="28.5953993" height="3.71237113" rx="1.85618557"></rect>
            </g>
        </g>
        <g id="iPhone-12-Pro-Outline-Copy" transform="translate(755.000000, 313.000000)">
            <g id="Device">
                <g id="Shape-Enhancement">
                    <mask id="mask-6" fill="white">
                        <use xlink:href="#path-5"></use>
                    </mask>
                    <path stroke="#FFFFFF" stroke-width="1.00515464" d="M279.9689,493.661934 L279.9689,214.568664 L280.607392,214.748017 C280.711536,214.777271 280.828728,214.792629 280.957732,214.792629 C281.171771,214.792629 281.352036,214.750534 281.494525,214.67356 C281.624515,214.603338 281.724627,214.503226 281.794849,214.373236 C281.871823,214.230747 281.913918,214.050482 281.913918,213.836443 L281.913918,148.622575 C281.913918,148.408536 281.871823,148.228271 281.794849,148.085782 C281.724627,147.955792 281.624515,147.85568 281.494525,147.785458 C281.352036,147.708484 281.171771,147.666389 280.957732,147.666389 C280.828728,147.666389 280.711536,147.681747 280.607392,147.711001 L279.9689,147.890354 L279.9689,79.0311005 C279.9689,54.0521089 277.855946,43.1103327 271.794002,31.7754824 C266.467871,21.8164831 258.654995,14.0036072 248.695995,8.67747606 C237.361145,2.61553179 226.419369,0.50257732 201.440377,0.50257732 L80.9761177,0.50257732 C55.9971261,0.50257732 45.0553498,2.61553179 33.7204996,8.67747606 C23.7615003,14.0036072 15.9486243,21.8164831 10.6224932,31.7754824 C4.56054897,43.1103327 2.4475945,54.0521089 2.4475945,79.0311005 L2.4475945,92.0226108 L1.80910296,91.8432577 C1.70495894,91.8140035 1.58776725,91.7986457 1.45876289,91.7986457 C1.2447242,91.7986457 1.06445929,91.8407404 0.921969824,91.9177146 C0.791980239,91.9879363 0.691867974,92.0880486 0.62164628,92.2180382 C0.544672024,92.3605277 0.50257732,92.5407926 0.50257732,92.7548312 L0.50257732,111.444691 C0.50257732,111.658729 0.544672024,111.838994 0.62164628,111.981484 C0.691867974,112.111473 0.791980239,112.211585 0.921969824,112.281807 C1.06445929,112.358781 1.2447242,112.400876 1.45876289,112.400876 C1.58776725,112.400876 1.70495894,112.385518 1.80910296,112.356264 L2.4475945,112.176911 L2.4475945,133.093434 L1.92125248,133.068518 C1.88510932,133.067096 1.88510932,133.067096 1.84776632,133.066805 C1.63372764,133.066805 1.45346273,133.108899 1.31097326,133.185873 C1.18098368,133.256095 1.08087141,133.356207 1.01064972,133.486197 C0.933675461,133.628686 0.891580756,133.808951 0.891580756,134.02299 L0.891580756,173.736251 C0.891580756,173.95029 0.933675461,174.130555 1.01064972,174.273044 C1.08087141,174.403034 1.18098368,174.503146 1.31097326,174.573368 C1.45346273,174.650342 1.63372764,174.692437 1.84776632,174.692437 C1.88510932,174.692146 1.88510932,174.692146 1.92125248,174.690723 L2.4475945,174.665807 L2.4475945,187.59855 L1.92125248,187.573633 C1.88510932,187.572211 1.88510932,187.572211 1.84776632,187.57192 C1.63372764,187.57192 1.45346273,187.614015 1.31097326,187.690989 C1.18098368,187.761211 1.08087141,187.861323 1.01064972,187.991312 C0.933675461,188.133802 0.891580756,188.314067 0.891580756,188.528106 L0.891580756,228.241366 C0.891580756,228.455405 0.933675461,228.63567 1.01064972,228.77816 C1.08087141,228.908149 1.18098368,229.008261 1.31097326,229.078483 C1.45346273,229.155457 1.63372764,229.197552 1.84776632,229.197552 C1.88510932,229.197261 1.88510932,229.197261 1.92125248,229.195839 L2.4475945,229.170922 L2.4475945,493.661934 C2.4475945,518.640925 4.56054897,529.582702 10.6224932,540.917552 C15.9486243,550.876551 23.7615003,558.689427 33.7204996,564.015558 C45.0553498,570.077503 55.9971261,572.190457 80.9761177,572.190457 L201.440377,572.190457 C226.419369,572.190457 237.361145,570.077503 248.695995,564.015558 C258.654995,558.689427 266.467871,550.876551 271.794002,540.917552 C277.855946,529.582702 279.9689,518.640925 279.9689,493.661934 Z"></path>
                    <path d="M220.370447,0.194661127 L224.649485,0.194661127 L224.649485,4.47720591 L220.370447,4.47720591 L220.370447,0.194661127 Z M276.19244,57.6196935 L280.471478,57.6196935 L280.471478,61.512916 L276.19244,61.512916 L276.19244,57.6196935 Z M276.19244,510.206813 L280.471478,510.206813 L280.471478,514.100035 L276.19244,514.100035 L276.19244,510.206813 Z M57.5725086,568.41049 L61.6570447,568.41049 L61.6570447,572.693034 L57.5725086,572.693034 L57.5725086,568.41049 Z M1.94501718,510.012152 L6.22405498,510.012152 L6.22405498,514.100035 L1.94501718,514.100035 L1.94501718,510.012152 Z M1.94501718,57.6196935 L6.4185567,57.6196935 L6.4185567,61.7075771 L1.94501718,61.7075771 L1.94501718,57.6196935 Z" id="Details" fill="#FFFFFF" mask="url(#mask-6)"></path>
                </g>
                <path d="M77.0084319,4.28254478 L205.408063,4.28254478 C230.021333,4.28254478 238.946699,6.84529722 247.944943,11.6576106 C256.943186,16.4699239 264.005061,23.5317981 268.817374,32.5300418 C273.629687,41.5282854 276.19244,50.4536518 276.19244,75.0669217 L276.19244,497.626113 C276.19244,522.239383 273.629687,531.164749 268.817374,540.162993 C264.005061,549.161236 256.943186,556.22311 247.944943,561.035424 C238.946699,565.847737 230.021333,568.41049 205.408063,568.41049 L77.0084319,568.41049 C52.395162,568.41049 43.4697956,565.847737 34.471552,561.035424 C25.4733083,556.22311 18.4114341,549.161236 13.5991208,540.162993 C8.78680742,531.164749 6.22405498,522.239383 6.22405498,497.626113 L6.22405498,75.0669217 C6.22405498,50.4536518 8.78680742,41.5282854 13.5991208,32.5300418 C18.4114341,23.5317981 25.4733083,16.4699239 34.471552,11.6576106 C43.4697956,6.84529722 52.395162,4.28254478 77.0084319,4.28254478 Z" id="Combined-Shape" stroke="#FFFFFF" stroke-width="1.00515464"></path>
            </g>
            <g id="Screen" transform="translate(15.000000, 14.000000)">
                <mask id="mask-8" fill="white">
                    <use xlink:href="#path-7"></use>
                </mask>
                <use id="Mask" stroke="#FFFFFF" xlink:href="#path-7"></use>
            </g>
            <g id="Speaker-+-Camera" transform="translate(127.000000, 14.000000)" stroke="#FFFFFF" stroke-width="1.00515464">
                <ellipse id="Oval" cx="43.1266349" cy="5.30721649" rx="4.79023696" ry="4.80463918"></ellipse>
                <ellipse id="Oval" cx="43.1266349" cy="5.30721649" rx="2.2418449" ry="2.24931271"></ellipse>
                <rect id="Rectangle" x="0.50257732" y="3.6475945" width="28.5953993" height="3.71237113" rx="1.85618557"></rect>
            </g>
        </g>
        <g id="iPhone-12-Pro-Outline-Copy-2" transform="translate(1261.000000, 313.000000)">
            <g id="Device">
                <g id="Shape-Enhancement">
                    <mask id="mask-10" fill="white">
                        <use xlink:href="#path-9"></use>
                    </mask>
                    <path stroke="#FFFFFF" stroke-width="1.00515464" d="M279.9689,493.661934 L279.9689,214.568664 L280.607392,214.748017 C280.711536,214.777271 280.828728,214.792629 280.957732,214.792629 C281.171771,214.792629 281.352036,214.750534 281.494525,214.67356 C281.624515,214.603338 281.724627,214.503226 281.794849,214.373236 C281.871823,214.230747 281.913918,214.050482 281.913918,213.836443 L281.913918,148.622575 C281.913918,148.408536 281.871823,148.228271 281.794849,148.085782 C281.724627,147.955792 281.624515,147.85568 281.494525,147.785458 C281.352036,147.708484 281.171771,147.666389 280.957732,147.666389 C280.828728,147.666389 280.711536,147.681747 280.607392,147.711001 L279.9689,147.890354 L279.9689,79.0311005 C279.9689,54.0521089 277.855946,43.1103327 271.794002,31.7754824 C266.467871,21.8164831 258.654995,14.0036072 248.695995,8.67747606 C237.361145,2.61553179 226.419369,0.50257732 201.440377,0.50257732 L80.9761177,0.50257732 C55.9971261,0.50257732 45.0553498,2.61553179 33.7204996,8.67747606 C23.7615003,14.0036072 15.9486243,21.8164831 10.6224932,31.7754824 C4.56054897,43.1103327 2.4475945,54.0521089 2.4475945,79.0311005 L2.4475945,92.0226108 L1.80910296,91.8432577 C1.70495894,91.8140035 1.58776725,91.7986457 1.45876289,91.7986457 C1.2447242,91.7986457 1.06445929,91.8407404 0.921969824,91.9177146 C0.791980239,91.9879363 0.691867974,92.0880486 0.62164628,92.2180382 C0.544672024,92.3605277 0.50257732,92.5407926 0.50257732,92.7548312 L0.50257732,111.444691 C0.50257732,111.658729 0.544672024,111.838994 0.62164628,111.981484 C0.691867974,112.111473 0.791980239,112.211585 0.921969824,112.281807 C1.06445929,112.358781 1.2447242,112.400876 1.45876289,112.400876 C1.58776725,112.400876 1.70495894,112.385518 1.80910296,112.356264 L2.4475945,112.176911 L2.4475945,133.093434 L1.92125248,133.068518 C1.88510932,133.067096 1.88510932,133.067096 1.84776632,133.066805 C1.63372764,133.066805 1.45346273,133.108899 1.31097326,133.185873 C1.18098368,133.256095 1.08087141,133.356207 1.01064972,133.486197 C0.933675461,133.628686 0.891580756,133.808951 0.891580756,134.02299 L0.891580756,173.736251 C0.891580756,173.95029 0.933675461,174.130555 1.01064972,174.273044 C1.08087141,174.403034 1.18098368,174.503146 1.31097326,174.573368 C1.45346273,174.650342 1.63372764,174.692437 1.84776632,174.692437 C1.88510932,174.692146 1.88510932,174.692146 1.92125248,174.690723 L2.4475945,174.665807 L2.4475945,187.59855 L1.92125248,187.573633 C1.88510932,187.572211 1.88510932,187.572211 1.84776632,187.57192 C1.63372764,187.57192 1.45346273,187.614015 1.31097326,187.690989 C1.18098368,187.761211 1.08087141,187.861323 1.01064972,187.991312 C0.933675461,188.133802 0.891580756,188.314067 0.891580756,188.528106 L0.891580756,228.241366 C0.891580756,228.455405 0.933675461,228.63567 1.01064972,228.77816 C1.08087141,228.908149 1.18098368,229.008261 1.31097326,229.078483 C1.45346273,229.155457 1.63372764,229.197552 1.84776632,229.197552 C1.88510932,229.197261 1.88510932,229.197261 1.92125248,229.195839 L2.4475945,229.170922 L2.4475945,493.661934 C2.4475945,518.640925 4.56054897,529.582702 10.6224932,540.917552 C15.9486243,550.876551 23.7615003,558.689427 33.7204996,564.015558 C45.0553498,570.077503 55.9971261,572.190457 80.9761177,572.190457 L201.440377,572.190457 C226.419369,572.190457 237.361145,570.077503 248.695995,564.015558 C258.654995,558.689427 266.467871,550.876551 271.794002,540.917552 C277.855946,529.582702 279.9689,518.640925 279.9689,493.661934 Z"></path>
                    <path d="M220.370447,0.194661127 L224.649485,0.194661127 L224.649485,4.47720591 L220.370447,4.47720591 L220.370447,0.194661127 Z M276.19244,57.6196935 L280.471478,57.6196935 L280.471478,61.512916 L276.19244,61.512916 L276.19244,57.6196935 Z M276.19244,510.206813 L280.471478,510.206813 L280.471478,514.100035 L276.19244,514.100035 L276.19244,510.206813 Z M57.5725086,568.41049 L61.6570447,568.41049 L61.6570447,572.693034 L57.5725086,572.693034 L57.5725086,568.41049 Z M1.94501718,510.012152 L6.22405498,510.012152 L6.22405498,514.100035 L1.94501718,514.100035 L1.94501718,510.012152 Z M1.94501718,57.6196935 L6.4185567,57.6196935 L6.4185567,61.7075771 L1.94501718,61.7075771 L1.94501718,57.6196935 Z" id="Details" fill="#FFFFFF" mask="url(#mask-10)"></path>
                </g>
                <path d="M77.0084319,4.28254478 L205.408063,4.28254478 C230.021333,4.28254478 238.946699,6.84529722 247.944943,11.6576106 C256.943186,16.4699239 264.005061,23.5317981 268.817374,32.5300418 C273.629687,41.5282854 276.19244,50.4536518 276.19244,75.0669217 L276.19244,497.626113 C276.19244,522.239383 273.629687,531.164749 268.817374,540.162993 C264.005061,549.161236 256.943186,556.22311 247.944943,561.035424 C238.946699,565.847737 230.021333,568.41049 205.408063,568.41049 L77.0084319,568.41049 C52.395162,568.41049 43.4697956,565.847737 34.471552,561.035424 C25.4733083,556.22311 18.4114341,549.161236 13.5991208,540.162993 C8.78680742,531.164749 6.22405498,522.239383 6.22405498,497.626113 L6.22405498,75.0669217 C6.22405498,50.4536518 8.78680742,41.5282854 13.5991208,32.5300418 C18.4114341,23.5317981 25.4733083,16.4699239 34.471552,11.6576106 C43.4697956,6.84529722 52.395162,4.28254478 77.0084319,4.28254478 Z" id="Combined-Shape" stroke="#FFFFFF" stroke-width="1.00515464"></path>
            </g>
            <g id="Screen" transform="translate(15.000000, 14.000000)">
                <mask id="mask-12" fill="white">
                    <use xlink:href="#path-11"></use>
                </mask>
                <use id="Mask" stroke="#FFFFFF" xlink:href="#path-11"></use>
            </g>
            <g id="Speaker-+-Camera" transform="translate(127.000000, 14.000000)" stroke="#FFFFFF" stroke-width="1.00515464">
                <ellipse id="Oval" cx="43.1266349" cy="5.30721649" rx="4.79023696" ry="4.80463918"></ellipse>
                <ellipse id="Oval" cx="43.1266349" cy="5.30721649" rx="2.2418449" ry="2.24931271"></ellipse>
                <rect id="Rectangle" x="0.50257732" y="3.6475945" width="28.5953993" height="3.71237113" rx="1.85618557"></rect>
            </g>
        </g>
        <g id="erfassen" fill-rule="nonzero">
            <use fill-opacity="0" fill="#FFFFFF" xlink:href="#path-13"></use>
            <use stroke="#FFFFFF" stroke-width="1" fill="#637F8A" xlink:href="#path-13"></use>
        </g>
        <g id="verarbeiten" fill-rule="nonzero">
            <use fill-opacity="0" fill="#FFFFFF" xlink:href="#path-14"></use>
            <use stroke="#FFFFFF" stroke-width="1" fill="#637F8A" xlink:href="#path-14"></use>
        </g>
        <g id="publizieren" fill-rule="nonzero">
            <use fill-opacity="0" fill="#FFFFFF" xlink:href="#path-15"></use>
            <use stroke="#FFFFFF" stroke-width="1" fill="#637F8A" xlink:href="#path-15"></use>
        </g>
    </g>
</svg>