<?xml version="1.0" encoding="UTF-8"?>
<svg width="1709px" height="901px" viewBox="0 0 1709 901" version="1.1" xmlns="http://www.w3.org/2000/svg" xmlns:xlink="http://www.w3.org/1999/xlink">
    <!-- Generator: Sketch 56.3 (81716) - https://sketch.com -->
    <title>Scene Small Copy</title>
    <desc>Created with Sketch.</desc>
    <g id="Scene-Small-Copy" stroke="none" stroke-width="1" fill="none" fill-rule="evenodd">
        <rect fill="#637F8A" x="0" y="0" width="1709" height="901"></rect>
        <path d="M410.449219,263.827637 L389.490234,263.827637 C389.10742,260.908677 388.126473,258.276867 386.547363,255.932129 C384.250477,252.77391 380.685571,251.194824 375.852539,251.194824 C368.96188,251.194824 364.248548,254.616177 361.712402,261.458984 C360.372552,265.095721 359.702637,269.928681 359.702637,275.958008 C359.702637,281.700224 360.372552,286.317854 361.712402,289.811035 C364.152844,296.31888 368.746548,299.572754 375.493652,299.572754 C380.278833,299.572754 383.676259,298.280775 385.686035,295.696777 C387.695811,293.11278 388.916013,289.763204 389.34668,285.647949 L410.233887,285.647949 C409.755369,291.868683 407.506368,297.754367 403.486816,303.305176 C397.074675,312.253463 387.576235,316.727539 374.991211,316.727539 C362.406187,316.727539 353.147002,312.995155 347.213379,305.530273 C341.279755,298.065392 338.312988,288.375548 338.312988,276.460449 C338.312988,263.014093 341.590788,252.558631 348.146484,245.09375 C354.702181,237.628869 363.746036,233.896484 375.27832,233.896484 C385.08794,233.896484 393.114959,236.097634 399.359619,240.5 C405.604279,244.902366 409.300776,252.678167 410.449219,263.827637 Z" id="Path" stroke="#FFFFFF" fill-opacity="0" fill="#FFFFFF" fill-rule="nonzero"></path>
        <path d="M495.888184,245.667969 C502.491732,253.94633 505.793457,263.731877 505.793457,275.024902 C505.793457,286.509335 502.491732,296.33077 495.888184,304.489502 C489.284635,312.648234 479.259833,316.727539 465.813477,316.727539 C452.36712,316.727539 442.342318,312.648234 435.73877,304.489502 C429.135221,296.33077 425.833496,286.509335 425.833496,275.024902 C425.833496,263.731877 429.135221,253.94633 435.73877,245.667969 C442.342318,237.389607 452.36712,233.250488 465.813477,233.250488 C479.259833,233.250488 489.284635,237.389607 495.888184,245.667969 Z" id="Path" stroke="#FFFFFF" fill-opacity="0" fill="#FFFFFF" fill-rule="nonzero"></path>
        <path d="M465.741699,250.548828 C459.760224,250.548828 455.154557,252.666239 451.924561,256.901123 C448.694564,261.136008 447.07959,267.177207 447.07959,275.024902 C447.07959,282.872598 448.694564,288.92576 451.924561,293.18457 C455.154557,297.443381 459.760224,299.572754 465.741699,299.572754 C471.723174,299.572754 476.316879,297.443381 479.522949,293.18457 C482.72902,288.92576 484.332031,282.872598 484.332031,275.024902 C484.332031,267.177207 482.72902,261.136008 479.522949,256.901123 C476.316879,252.666239 471.723174,250.548828 465.741699,250.548828 Z" id="Path" stroke="#FFFFFF" fill-opacity="0" fill="#FFFFFF" fill-rule="nonzero"></path>
        <polygon id="Path" stroke="#FFFFFF" fill-opacity="0" fill="#FFFFFF" fill-rule="nonzero" points="526.991699 208.200195 547.448242 208.200195 547.448242 314 526.991699 314"></polygon>
        <polygon id="Path" stroke="#FFFFFF" fill-opacity="0" fill="#FFFFFF" fill-rule="nonzero" points="573.958008 208.200195 594.414551 208.200195 594.414551 314 573.958008 314"></polygon>
        <path d="M687.461914,291.03125 C686.935544,295.672875 684.519065,300.386207 680.212402,305.171387 C673.51315,312.779823 664.134338,316.583984 652.075684,316.583984 C642.122509,316.583984 633.341835,313.377962 625.733398,306.96582 C618.124962,300.553679 614.320801,290.122143 614.320801,275.670898 C614.320801,262.128839 617.754116,251.745153 624.62085,244.519531 C631.487583,237.293909 640.399848,233.681152 651.35791,233.681152 C657.865755,233.681152 663.727513,234.901355 668.943359,237.341797 C674.159206,239.782239 678.465803,243.634251 681.863281,248.897949 C684.925797,253.539574 686.911617,258.922821 687.820801,265.047852 C688.347171,268.636737 688.5625,273.804654 688.466797,280.551758 L634.920898,280.551758 C635.208009,288.399453 637.67234,293.902328 642.313965,297.060547 C645.137221,299.022471 648.534648,300.003418 652.506348,300.003418 C656.717306,300.003418 660.138659,298.807141 662.770508,296.414551 C664.206062,295.122552 665.474116,293.328136 666.574707,291.03125 L687.461914,291.03125 Z" id="Path" stroke="#FFFFFF" fill-opacity="0" fill="#FFFFFF" fill-rule="nonzero"></path>
        <path d="M667.220703,267.057617 C666.885741,261.650364 665.246841,257.547133 662.303955,254.747803 C659.361069,251.948472 655.712424,250.548828 651.35791,250.548828 C646.620582,250.548828 642.948011,252.032212 640.340088,254.999023 C637.732165,257.965835 636.093265,261.985326 635.42334,267.057617 L667.220703,267.057617 Z" id="Path" stroke="#FFFFFF" fill-opacity="0" fill="#FFFFFF" fill-rule="nonzero"></path>
        <path d="M776.059082,263.827637 L755.100098,263.827637 C754.717283,260.908677 753.736336,258.276867 752.157227,255.932129 C749.86034,252.77391 746.295434,251.194824 741.462402,251.194824 C734.571743,251.194824 729.858411,254.616177 727.322266,261.458984 C725.982415,265.095721 725.3125,269.928681 725.3125,275.958008 C725.3125,281.700224 725.982415,286.317854 727.322266,289.811035 C729.762708,296.31888 734.356412,299.572754 741.103516,299.572754 C745.888696,299.572754 749.286123,298.280775 751.295898,295.696777 C753.305674,293.11278 754.525877,289.763204 754.956543,285.647949 L775.84375,285.647949 C775.365232,291.868683 773.116231,297.754367 769.09668,303.305176 C762.684538,312.253463 753.186098,316.727539 740.601074,316.727539 C728.01605,316.727539 718.756866,312.995155 712.823242,305.530273 C706.889619,298.065392 703.922852,288.375548 703.922852,276.460449 C703.922852,263.014093 707.200651,252.558631 713.756348,245.09375 C720.312044,237.628869 729.355899,233.896484 740.888184,233.896484 C750.697803,233.896484 758.724822,236.097634 764.969482,240.5 C771.214143,244.902366 774.910639,252.678167 776.059082,263.827637 Z" id="Path" stroke="#FFFFFF" fill-opacity="0" fill="#FFFFFF" fill-rule="nonzero"></path>
        <path d="M832.069336,299.429199 L832.069336,314.717773 L822.379395,315.07666 C812.713331,315.411623 806.109881,313.736835 802.568848,310.052246 C800.271961,307.707508 799.123535,304.094751 799.123535,299.213867 L799.123535,251.05127 L788.213379,251.05127 L788.213379,236.480469 L799.123535,236.480469 L799.123535,214.660156 L819.364746,214.660156 L819.364746,236.480469 L832.069336,236.480469 L832.069336,251.05127 L819.364746,251.05127 L819.364746,292.39502 C819.364746,295.60109 819.77148,297.598873 820.584961,298.388428 C821.398442,299.177982 823.886698,299.572754 828.049805,299.572754 C828.671878,299.572754 829.329831,299.560791 830.023682,299.536865 C830.717533,299.512939 831.399411,299.477051 832.069336,299.429199 Z" id="Path" stroke="#FFFFFF" fill-opacity="0" fill="#FFFFFF" fill-rule="nonzero"></path>
        <path d="M639.236084,404.160645 C645.552522,410.907749 648.710693,420.812923 648.710693,433.876465 C648.710693,447.657784 645.612336,458.161097 639.415527,465.386719 C633.218719,472.612341 625.239551,476.225098 615.477783,476.225098 C609.257049,476.225098 604.089132,474.669937 599.973877,471.55957 C597.724842,469.836905 595.523692,467.324724 593.370361,464.022949 L593.370361,504.79248 L573.12915,504.79248 L573.12915,395.762695 L592.724365,395.762695 L592.724365,407.318848 C594.925548,403.92137 597.270251,401.241709 599.758545,399.279785 C604.304466,395.786604 609.711639,394.040039 615.980225,394.040039 C625.119919,394.040039 632.871794,397.41354 639.236084,404.160645 Z" id="Path" stroke="#FFFFFF" fill-opacity="0" fill="#FFFFFF" fill-rule="nonzero"></path>
        <path d="M627.608154,434.881348 C627.608154,428.852021 626.232436,423.516625 623.480957,418.875 C620.729478,414.233375 616.267365,411.912598 610.094482,411.912598 C602.677453,411.912598 597.581313,415.429652 594.805908,422.463867 C593.370354,426.196308 592.652588,430.933565 592.652588,436.675781 C592.652588,445.767624 595.069068,452.155743 599.9021,455.840332 C602.773208,457.993663 606.170635,459.070312 610.094482,459.070312 C615.788847,459.070312 620.131333,456.869163 623.12207,452.466797 C626.112808,448.064431 627.608154,442.202673 627.608154,434.881348 Z" id="Path" stroke="#FFFFFF" fill-opacity="0" fill="#FFFFFF" fill-rule="nonzero"></path>
        <path d="M708.955811,414.640137 C700.725301,414.640137 695.1985,417.319797 692.375244,422.679199 C690.796135,425.693863 690.006592,430.335418 690.006592,436.604004 L690.006592,474 L669.406494,474 L669.406494,395.762695 L688.929932,395.762695 L688.929932,409.400391 C692.088151,404.184544 694.839588,400.619638 697.184326,398.705566 C701.01247,395.499496 705.988983,393.896484 712.114014,393.896484 C712.496828,393.896484 712.819823,393.908447 713.083008,393.932373 C713.346193,393.956299 713.932369,393.992187 714.841553,394.040039 L714.841553,414.999023 C713.549554,414.855468 712.401128,414.759766 711.39624,414.711914 C710.391352,414.664062 709.577884,414.640137 708.955811,414.640137 Z" id="Path" stroke="#FFFFFF" fill-opacity="0" fill="#FFFFFF" fill-rule="nonzero"></path>
        <path d="M798.198975,405.667969 C804.802523,413.94633 808.104248,423.731877 808.104248,435.024902 C808.104248,446.509335 804.802523,456.33077 798.198975,464.489502 C791.595426,472.648234 781.570624,476.727539 768.124268,476.727539 C754.677911,476.727539 744.653109,472.648234 738.049561,464.489502 C731.446012,456.33077 728.144287,446.509335 728.144287,435.024902 C728.144287,423.731877 731.446012,413.94633 738.049561,405.667969 C744.653109,397.389607 754.677911,393.250488 768.124268,393.250488 C781.570624,393.250488 791.595426,397.389607 798.198975,405.667969 Z" id="Path" stroke="#FFFFFF" fill-opacity="0" fill="#FFFFFF" fill-rule="nonzero"></path>
        <path d="M768.05249,410.548828 C762.071015,410.548828 757.465348,412.666239 754.235352,416.901123 C751.005355,421.136008 749.390381,427.177207 749.390381,435.024902 C749.390381,442.872598 751.005355,448.92576 754.235352,453.18457 C757.465348,457.443381 762.071015,459.572754 768.05249,459.572754 C774.033965,459.572754 778.62767,457.443381 781.83374,453.18457 C785.039811,448.92576 786.642822,442.872598 786.642822,435.024902 C786.642822,427.177207 785.039811,421.136008 781.83374,416.901123 C778.62767,412.666239 774.033965,410.548828 768.05249,410.548828 Z" id="Path" stroke="#FFFFFF" fill-opacity="0" fill="#FFFFFF" fill-rule="nonzero"></path>
        <path d="M896.557861,423.827637 L875.598877,423.827637 C875.216063,420.908677 874.235115,418.276867 872.656006,415.932129 C870.359119,412.77391 866.794214,411.194824 861.961182,411.194824 C855.070522,411.194824 850.35719,414.616177 847.821045,421.458984 C846.481194,425.095721 845.811279,429.928681 845.811279,435.958008 C845.811279,441.700224 846.481194,446.317854 847.821045,449.811035 C850.261487,456.31888 854.855191,459.572754 861.602295,459.572754 C866.387475,459.572754 869.784902,458.280775 871.794678,455.696777 C873.804453,453.11278 875.024656,449.763204 875.455322,445.647949 L896.342529,445.647949 C895.864011,451.868683 893.61501,457.754367 889.595459,463.305176 C883.183318,472.253463 873.684877,476.727539 861.099854,476.727539 C848.51483,476.727539 839.255645,472.995155 833.322021,465.530273 C827.388398,458.065392 824.421631,448.375548 824.421631,436.460449 C824.421631,423.014093 827.69943,412.558631 834.255127,405.09375 C840.810824,397.628869 849.854679,393.896484 861.386963,393.896484 C871.196582,393.896484 879.223602,396.097634 885.468262,400.5 C891.712922,404.902366 895.409418,412.678167 896.557861,423.827637 Z" id="Path" stroke="#FFFFFF" fill-opacity="0" fill="#FFFFFF" fill-rule="nonzero"></path>
        <path d="M983.719482,451.03125 C983.193113,455.672875 980.776633,460.386207 976.469971,465.171387 C969.770718,472.779823 960.391906,476.583984 948.333252,476.583984 C938.380077,476.583984 929.599403,473.377962 921.990967,466.96582 C914.38253,460.553679 910.578369,450.122143 910.578369,435.670898 C910.578369,422.128839 914.011684,411.745153 920.878418,404.519531 C927.745152,397.293909 936.657416,393.681152 947.615479,393.681152 C954.123324,393.681152 959.985081,394.901355 965.200928,397.341797 C970.416774,399.782239 974.723372,403.634251 978.12085,408.897949 C981.183365,413.539574 983.169185,418.922821 984.078369,425.047852 C984.604739,428.636737 984.820069,433.804654 984.724365,440.551758 L931.178467,440.551758 C931.465578,448.399453 933.929908,453.902328 938.571533,457.060547 C941.39479,459.022471 944.792216,460.003418 948.763916,460.003418 C952.974875,460.003418 956.396227,458.807141 959.028076,456.414551 C960.46363,455.122552 961.731684,453.328136 962.832275,451.03125 L983.719482,451.03125 Z" id="Path" stroke="#FFFFFF" fill-opacity="0" fill="#FFFFFF" fill-rule="nonzero"></path>
        <path d="M963.478271,427.057617 C963.143309,421.650364 961.504409,417.547133 958.561523,414.747803 C955.618638,411.948472 951.969992,410.548828 947.615479,410.548828 C942.87815,410.548828 939.205579,412.032212 936.597656,414.999023 C933.989733,417.965835 932.350833,421.985326 931.680908,427.057617 L963.478271,427.057617 Z" id="Path" stroke="#FFFFFF" fill-opacity="0" fill="#FFFFFF" fill-rule="nonzero"></path>
        <path d="M1058.5354,399.351562 C1064.66043,403.27541 1068.17749,410.022413 1069.08667,419.592773 L1048.63013,419.592773 C1048.34302,416.960924 1047.60132,414.879402 1046.40503,413.348145 C1044.15599,410.57274 1040.32791,409.185059 1034.92065,409.185059 C1030.47044,409.185059 1027.3003,409.878899 1025.41016,411.266602 C1023.52001,412.654304 1022.57495,414.281241 1022.57495,416.147461 C1022.57495,418.492199 1023.57982,420.190913 1025.5896,421.243652 C1027.59938,422.344244 1034.70526,424.234362 1046.90747,426.914062 C1055.04228,428.828135 1061.14329,431.723125 1065.21069,435.599121 C1069.23024,439.522969 1071.23999,444.427705 1071.23999,450.313477 C1071.23999,458.065468 1068.35696,464.393774 1062.59082,469.298584 C1056.82468,474.203394 1047.91241,476.655762 1035.85376,476.655762 C1023.55585,476.655762 1014.4761,474.05984 1008.61426,468.86792 C1002.75241,463.675999 999.821533,457.060587 999.821533,449.021484 L1020.56519,449.021484 C1020.99585,452.658221 1021.92895,455.24218 1023.3645,456.773438 C1025.90065,459.50099 1030.59005,460.864746 1037.43286,460.864746 C1041.45241,460.864746 1044.64647,460.266608 1047.01514,459.070312 C1049.3838,457.874017 1050.56812,456.079602 1050.56812,453.687012 C1050.56812,451.390125 1049.61109,449.643561 1047.69702,448.447266 C1045.78295,447.250971 1038.67706,445.193374 1026.37915,442.274414 C1017.52657,440.073231 1011.282,437.321794 1007.64526,434.02002 C1004.00853,430.766097 1002.19019,426.076691 1002.19019,419.95166 C1002.19019,412.726038 1005.02536,406.51736 1010.6958,401.325439 C1016.36624,396.133519 1024.34541,393.537598 1034.63354,393.537598 C1044.39531,393.537598 1052.36252,395.475567 1058.5354,399.351562 Z" id="Path" stroke="#FFFFFF" fill-opacity="0" fill="#FFFFFF" fill-rule="nonzero"></path>
        <path d="M1146.41479,399.351562 C1152.53983,403.27541 1156.05688,410.022413 1156.96606,419.592773 L1136.50952,419.592773 C1136.22241,416.960924 1135.48072,414.879402 1134.28442,413.348145 C1132.03539,410.57274 1128.2073,409.185059 1122.80005,409.185059 C1118.34983,409.185059 1115.1797,409.878899 1113.28955,411.266602 C1111.3994,412.654304 1110.45435,414.281241 1110.45435,416.147461 C1110.45435,418.492199 1111.45922,420.190913 1113.46899,421.243652 C1115.47877,422.344244 1122.58466,424.234362 1134.78687,426.914062 C1142.92167,428.828135 1149.02268,431.723125 1153.09009,435.599121 C1157.10964,439.522969 1159.11938,444.427705 1159.11938,450.313477 C1159.11938,458.065468 1156.23636,464.393774 1150.47021,469.298584 C1144.70407,474.203394 1135.79181,476.655762 1123.73315,476.655762 C1111.43524,476.655762 1102.3555,474.05984 1096.49365,468.86792 C1090.63181,463.675999 1087.70093,457.060587 1087.70093,449.021484 L1108.44458,449.021484 C1108.87525,452.658221 1109.80834,455.24218 1111.2439,456.773438 C1113.78004,459.50099 1118.46945,460.864746 1125.31226,460.864746 C1129.33181,460.864746 1132.52587,460.266608 1134.89453,459.070312 C1137.2632,457.874017 1138.44751,456.079602 1138.44751,453.687012 C1138.44751,451.390125 1137.49049,449.643561 1135.57642,448.447266 C1133.66234,447.250971 1126.55646,445.193374 1114.25854,442.274414 C1105.40596,440.073231 1099.1614,437.321794 1095.52466,434.02002 C1091.88792,430.766097 1090.06958,426.076691 1090.06958,419.95166 C1090.06958,412.726038 1092.90476,406.51736 1098.5752,401.325439 C1104.24563,396.133519 1112.2248,393.537598 1122.51294,393.537598 C1132.27471,393.537598 1140.24191,395.475567 1146.41479,399.351562 Z" id="Path" stroke="#FFFFFF" fill-opacity="0" fill="#FFFFFF" fill-rule="nonzero"></path>
        <path d="M919.836182,573.160645 C926.152619,579.907749 929.310791,589.812923 929.310791,602.876465 C929.310791,616.657784 926.212433,627.161097 920.015625,634.386719 C913.818817,641.612341 905.839648,645.225098 896.077881,645.225098 C889.857147,645.225098 884.68923,643.669937 880.573975,640.55957 C878.32494,638.836905 876.12379,636.324724 873.970459,633.022949 L873.970459,673.79248 L853.729248,673.79248 L853.729248,564.762695 L873.324463,564.762695 L873.324463,576.318848 C875.525646,572.92137 877.870349,570.241709 880.358643,568.279785 C884.904564,564.786604 890.311736,563.040039 896.580322,563.040039 C905.720016,563.040039 913.471892,566.41354 919.836182,573.160645 Z" id="Path" stroke="#FFFFFF" fill-opacity="0" fill="#FFFFFF" fill-rule="nonzero"></path>
        <path d="M908.208252,603.881348 C908.208252,597.852021 906.832533,592.516625 904.081055,587.875 C901.329576,583.233375 896.867463,580.912598 890.69458,580.912598 C883.277551,580.912598 878.18141,584.429652 875.406006,591.463867 C873.970452,595.196308 873.252686,599.933565 873.252686,605.675781 C873.252686,614.767624 875.669165,621.155743 880.502197,624.840332 C883.373305,626.993663 886.770732,628.070312 890.69458,628.070312 C896.388944,628.070312 900.73143,625.869163 903.722168,621.466797 C906.712906,617.064431 908.208252,611.202673 908.208252,603.881348 Z" id="Path" stroke="#FFFFFF" fill-opacity="0" fill="#FFFFFF" fill-rule="nonzero"></path>
        <path d="M1000.39429,631.946289 C1000.20288,632.185548 999.724369,632.903314 998.95874,634.099609 C998.193111,635.295904 997.283941,636.348628 996.231201,637.257812 C993.02513,640.128921 989.926773,642.090815 986.936035,643.143555 C983.945298,644.196294 980.440206,644.722656 976.420654,644.722656 C964.840518,644.722656 957.040792,640.559612 953.02124,632.233398 C950.772206,627.639625 949.647705,620.868697 949.647705,611.92041 L949.647705,564.762695 L970.606689,564.762695 L970.606689,611.92041 C970.606689,616.370628 971.133051,619.720204 972.185791,621.969238 C974.052011,625.940938 977.712619,627.926758 983.167725,627.926758 C990.154088,627.926758 994.939196,625.103544 997.523193,619.457031 C998.863044,616.394516 999.532959,612.351099 999.532959,607.32666 L999.532959,564.762695 L1020.27661,564.762695 L1020.27661,643 L1000.39429,643 L1000.39429,631.946289 Z" id="Path" stroke="#FFFFFF" fill-opacity="0" fill="#FFFFFF" fill-rule="nonzero"></path>
        <path d="M1088.63257,645.081543 C1082.17258,645.081543 1076.98073,643.789564 1073.05688,641.205566 C1070.71215,639.674309 1068.17604,636.994648 1065.44849,633.166504 L1065.44849,643 L1045.42261,643 L1045.42261,537.34375 L1065.80737,537.34375 L1065.80737,574.955078 C1068.39137,571.318341 1071.23851,568.542978 1074.34888,566.628906 C1078.03347,564.236316 1082.72287,563.040039 1088.41724,563.040039 C1098.70537,563.040039 1106.75632,566.748498 1112.57031,574.165527 C1118.38431,581.582557 1121.29126,591.152773 1121.29126,602.876465 C1121.29126,615.030822 1118.42019,625.103476 1112.67798,633.094727 C1106.93576,641.085977 1098.92071,645.081543 1088.63257,645.081543 Z" id="Path" stroke="#FFFFFF" fill-opacity="0" fill="#FFFFFF" fill-rule="nonzero"></path>
        <path d="M1099.82983,605.029785 C1099.82983,599.478976 1099.11207,594.885272 1097.67651,591.248535 C1094.94896,584.357876 1089.9246,580.912598 1082.60327,580.912598 C1075.18624,580.912598 1070.0901,584.286099 1067.3147,591.033203 C1065.87914,594.622088 1065.16138,599.263643 1065.16138,604.958008 C1065.16138,611.65726 1066.64476,617.207986 1069.61157,621.610352 C1072.57838,626.012717 1077.10031,628.213867 1083.17749,628.213867 C1088.44119,628.213867 1092.53246,626.084494 1095.45142,621.825684 C1098.37038,617.566873 1099.82983,611.968296 1099.82983,605.029785 Z" id="Path" stroke="#FFFFFF" fill-opacity="0" fill="#FFFFFF" fill-rule="nonzero"></path>
        <polygon id="Path" stroke="#FFFFFF" fill-opacity="0" fill="#FFFFFF" fill-rule="nonzero" points="1142.4895 537.200195 1162.94604 537.200195 1162.94604 643 1142.4895 643"></polygon>
        <polygon id="Path" stroke="#FFFFFF" fill-opacity="0" fill="#FFFFFF" fill-rule="nonzero" points="1210.05591 564.762695 1210.05591 643 1189.31226 643 1189.31226 564.762695"></polygon>
        <polygon id="Path" stroke="#FFFFFF" fill-opacity="0" fill="#FFFFFF" fill-rule="nonzero" points="1210.05591 527.554199 1210.05591 546.431641 1189.31226 546.431641 1189.31226 527.554199"></polygon>
        <path d="M1289.89624,568.351562 C1296.02127,572.27541 1299.53833,579.022413 1300.44751,588.592773 L1279.99097,588.592773 C1279.70386,585.960924 1278.96216,583.879402 1277.76587,582.348145 C1275.51683,579.57274 1271.68875,578.185059 1266.28149,578.185059 C1261.83128,578.185059 1258.66114,578.878899 1256.771,580.266602 C1254.88085,581.654304 1253.93579,583.281241 1253.93579,585.147461 C1253.93579,587.492199 1254.94066,589.190913 1256.95044,590.243652 C1258.96022,591.344244 1266.0661,593.234362 1278.26831,595.914062 C1286.40312,597.828135 1292.50413,600.723125 1296.57153,604.599121 C1300.59108,608.522969 1302.60083,613.427705 1302.60083,619.313477 C1302.60083,627.065468 1299.7178,633.393774 1293.95166,638.298584 C1288.18552,643.203394 1279.27325,645.655762 1267.2146,645.655762 C1254.91669,645.655762 1245.83694,643.05984 1239.9751,637.86792 C1234.11325,632.675999 1231.18237,626.060587 1231.18237,618.021484 L1251.92603,618.021484 C1252.35669,621.658221 1253.28979,624.24218 1254.72534,625.773438 C1257.26149,628.50099 1261.95089,629.864746 1268.7937,629.864746 C1272.81325,629.864746 1276.00731,629.266608 1278.37598,628.070312 C1280.74464,626.874017 1281.92896,625.079602 1281.92896,622.687012 C1281.92896,620.390125 1280.97193,618.643561 1279.05786,617.447266 C1277.14379,616.250971 1270.0379,614.193374 1257.73999,611.274414 C1248.88741,609.073231 1242.64284,606.321794 1239.0061,603.02002 C1235.36937,599.766097 1233.55103,595.076691 1233.55103,588.95166 C1233.55103,581.726038 1236.3862,575.51736 1242.05664,570.325439 C1247.72708,565.133519 1255.70625,562.537598 1265.99438,562.537598 C1275.75615,562.537598 1283.72336,564.475567 1289.89624,568.351562 Z" id="Path" stroke="#FFFFFF" fill-opacity="0" fill="#FFFFFF" fill-rule="nonzero"></path>
        <path d="M1394.57153,597.0625 L1394.57153,643 L1373.68433,643 L1373.68433,595.411621 C1373.68433,591.200663 1372.96656,587.803236 1371.53101,585.219238 C1369.66479,581.582501 1366.12381,579.76416 1360.90796,579.76416 C1355.50071,579.76416 1351.39747,581.570539 1348.59814,585.18335 C1345.79881,588.796161 1344.39917,593.952115 1344.39917,600.651367 L1344.39917,643 L1324.0144,643 L1324.0144,537.559082 L1344.39917,537.559082 L1344.39917,574.955078 C1347.36598,570.409157 1350.7993,567.239023 1354.69922,565.44458 C1358.59914,563.650138 1362.70237,562.75293 1367.00903,562.75293 C1371.84207,562.75293 1376.2324,563.590324 1380.18018,565.265137 C1384.12795,566.93995 1387.36986,569.499983 1389.90601,572.945312 C1392.05934,575.864272 1393.37524,578.866928 1393.85376,581.953369 C1394.33228,585.03981 1394.57153,590.076137 1394.57153,597.0625 Z" id="Path" stroke="#FFFFFF" fill-opacity="0" fill="#FFFFFF" fill-rule="nonzero"></path>
    </g>
</svg>